<?xml version="1.0" encoding="utf-8"?>
<!-- Generator: Adobe Illustrator 19.0.0, SVG Export Plug-In . SVG Version: 6.00 Build 0)  -->
<svg version="1.1" id="layer" xmlns="http://www.w3.org/2000/svg" xmlns:xlink="http://www.w3.org/1999/xlink" x="0px" y="0px"
	 viewBox="-155.6 195.5 648.1 159.5" style="enable-background:new -153 -46 652 652;" xml:space="preserve">
<style type="text/css">
	.st0{fill:#E05206;}
</style>
<path class="st0" d="M14.5,291.1v3.8c0,14.3-0.2,27.2-15.3,37.1c-15,9.7-33.4,9.6-52.7,9.6c-45.1,0-78.1-1.7-78.1-49.5v-33.8
	c0-43.2,29.4-49.5,78.1-49.5c45.6,0,66.8,3.7,67.7,42.9v5.1h-45.6v-5c-1.5-11.7-11.9-12.5-27-12.5c-25.2,0-27.7,6.1-27.7,24.7v20.4
	c0,19.5,1.1,27,27.7,27c18.4,0,27.2-1,27.2-16.4v-3.8L14.5,291.1L14.5,291.1z M26.7,209.9h38.1v130.7H26.7V209.9z M153.3,280.9
	c0-14.2-6.7-15.1-20.1-15.1c-14.1,0-18.5,2.6-18.9,15.1H153.3L153.3,280.9z M193,308.8c0,14.4-6,22.5-16.4,27.3
	c-10.4,4.5-25.2,5.6-42.7,5.6c-47.8,0-59.3-13.1-59.3-48.7c0-36.7,10.6-48.9,59.3-48.9c45.5,0,59.1,10,59.1,48.9v5.3l-78.7,0
	c0,16.7,3.2,21.6,19.6,21.6c12.2,0,20.1-1.1,20.1-11.1L193,308.8L193,308.8L193,308.8z M319.9,302.4c0,17.8-3.9,27.6-13.4,32.9
	c-9.2,5.5-23.8,6.4-45.2,6.4c-46.9,0-58-11.1-58-48.7c0-32.3,8.3-48.9,58-48.9c34.8,0,58.7,2.9,58.7,36.9h-39.7
	c0.2-5.1-0.5-8.2-3.2-10.2c-2.8-2-7.4-2.7-15.7-2.7c-14.1,0-18.2,3.1-18.2,24.9c0,22.3,3.2,24.7,18.2,24.7c18,0,18.9-3.4,18.9-15.3
	H319.9L319.9,302.4z M369.2,292.9c0,20.7,2.3,24.7,21.5,24.7c18.5,0,20.3-4,20.3-24.7c0-20.7-1.9-24.9-20.3-24.9
	C371.5,268,369.2,272.2,369.2,292.9 M450.7,292.9c0,39.3-10.4,48.7-60.7,48.7c-49.6,0-60.5-10.5-60.5-48.7
	c0-39.1,9.9-48.9,60.5-48.9C440.8,244.1,450.7,252.6,450.7,292.9"/>
<path class="st0" d="M456,245.3c1.8,0,3.5-0.1,3.5-2.3c0-1.7-1.6-2.1-3.1-2.1h-2.9v4.3H456z M453.4,253.2h-2.2v-14h5.4
	c3.4,0,5,1.2,5,4c0,2.5-1.6,3.6-3.7,3.8l4,6.2h-2.4l-3.7-6.1h-2.5L453.4,253.2z M456,256.3c5.6,0,10-4.3,10-10.1
	c0-5.7-4.4-10.1-10-10.1c-5.6,0-10,4.3-10,10.1C446,252,450.4,256.3,456,256.3z M443.5,246.1c0-7,5.7-12.1,12.5-12.1
	c6.7,0,12.5,5.1,12.5,12.1c0,7-5.7,12.2-12.5,12.2C449.2,258.3,443.5,253.2,443.5,246.1z"/>
</svg>
