<?xml version="1.0" standalone="no"?>
<!DOCTYPE svg PUBLIC "-//W3C//DTD SVG 20010904//EN"
 "http://www.w3.org/TR/2001/REC-SVG-20010904/DTD/svg10.dtd">
<svg version="1.0" xmlns="http://www.w3.org/2000/svg"
 width="1400.000000pt" height="394.000000pt" viewBox="0 0 1400.000000 394.000000"
 preserveAspectRatio="xMidYMid meet">

<g transform="translate(0.000000,394.000000) scale(0.100000,-0.100000)"
fill="#000000" stroke="none">
<path d="M0 3655 l0 -285 703 0 c455 0 724 -4 763 -11 156 -28 310 -143 379
-282 161 -327 8 -694 -330 -793 -52 -15 -119 -18 -502 -21 l-443 -4 0 320 0
321 -134 0 -134 0 -151 -157 -151 -158 0 -447 0 -448 695 0 c427 0 733 4 792
11 244 27 463 126 631 284 226 212 340 466 359 795 17 305 -85 603 -277 813
-114 124 -322 250 -490 296 -175 48 -229 51 -992 51 l-718 0 0 -285z"/>
<path d="M2750 3351 l-105 -6 0 -535 c0 -606 1 -621 77 -772 80 -159 218 -260
428 -312 244 -61 586 -61 830 0 268 67 415 208 483 464 21 83 22 97 22 625 l0
540 -202 3 -203 2 0 -494 c0 -312 -4 -513 -11 -545 -24 -113 -92 -173 -236
-208 -85 -20 -395 -23 -493 -4 -167 32 -238 100 -260 248 -5 37 -10 278 -10
536 l0 467 -107 -2 c-60 -1 -155 -4 -213 -7z"/>
<path d="M4710 2531 l0 -831 205 0 205 0 2 613 3 612 445 0 c425 0 447 -1 484
-20 64 -32 81 -64 81 -150 0 -83 -16 -115 -76 -150 -32 -19 -55 -20 -381 -23
l-348 -3 0 -170 0 -169 160 0 159 0 26 -27 c14 -16 121 -137 238 -270 l212
-243 293 0 c160 0 292 3 292 6 0 3 -111 121 -247 261 -137 140 -249 259 -251
263 -2 5 12 16 32 24 54 22 148 89 189 135 80 89 117 199 117 351 0 190 -53
334 -165 445 -71 71 -154 117 -262 147 -76 21 -97 22 -745 26 l-668 3 0 -830z"/>
<path d="M7495 3354 c-162 -21 -270 -53 -364 -105 -181 -102 -303 -258 -363
-464 -20 -69 -23 -103 -23 -240 0 -137 3 -171 23 -240 67 -232 211 -409 417
-511 168 -83 202 -88 585 -88 314 -1 340 0 422 21 400 102 646 444 625 868 -7
131 -32 228 -90 345 -33 69 -58 102 -132 175 -96 96 -167 144 -268 181 -137
49 -194 56 -507 59 -162 2 -308 1 -325 -1z m575 -424 c162 -31 280 -143 321
-303 6 -27 10 -84 7 -130 -10 -193 -140 -334 -339 -367 -45 -8 -158 -10 -326
-8 -232 4 -264 7 -315 26 -123 45 -200 123 -239 244 -28 87 -23 213 10 300 42
108 148 199 272 232 65 18 525 22 609 6z"/>
<path d="M9015 3348 c-3 -7 -4 -380 -3 -828 l3 -815 207 -3 208 -2 2 267 3
268 483 3 482 2 -2 168 -3 167 -482 3 -483 2 0 180 0 180 515 0 515 0 0 210 0
210 -720 0 c-567 0 -722 -3 -725 -12z"/>
<path d="M10640 2530 l0 -830 208 2 207 3 0 825 0 825 -207 3 -208 2 0 -830z"/>
<path d="M12640 3184 c-91 -97 -166 -182 -167 -188 -1 -6 58 -74 133 -151
l135 -140 314 320 c173 176 315 323 315 327 0 5 -127 8 -283 8 l-282 0 -165
-176z"/>
<path d="M13500 3340 c0 -17 7 -20 40 -20 l40 0 0 -110 0 -110 25 0 25 0 0
110 0 110 40 0 c33 0 40 3 40 20 0 19 -7 20 -105 20 -98 0 -105 -1 -105 -20z"/>
<path d="M13740 3230 c0 -131 0 -131 23 -128 21 3 22 8 25 98 l4 95 27 -95
c25 -84 30 -95 52 -98 23 -3 26 3 48 88 13 49 27 90 32 90 5 0 9 -40 9 -90 0
-83 1 -90 20 -90 19 0 20 7 20 130 l0 130 -35 0 c-34 0 -34 -1 -54 -67 -11
-38 -23 -81 -27 -96 -3 -15 -9 -25 -13 -22 -3 4 -17 45 -31 93 l-26 87 -37 3
-37 3 0 -131z"/>
<path d="M12608 2287 c-75 -67 -136 -127 -135 -133 1 -6 100 -111 219 -233
l216 -221 269 2 268 3 -344 353 c-189 193 -347 352 -350 351 -3 0 -68 -55
-143 -122z"/>
<path d="M7635 878 c-2 -7 -16 -62 -29 -123 -14 -60 -57 -247 -95 -414 -39
-167 -71 -307 -71 -312 0 -5 44 -9 99 -9 l99 0 22 98 c13 53 57 246 100 427
42 182 75 333 73 338 -7 13 -193 8 -198 -5z"/>
<path d="M8026 878 c-5 -17 -13 -48 -112 -477 -46 -201 -84 -368 -84 -373 0
-4 45 -8 100 -8 55 0 100 2 100 4 0 5 43 194 124 544 36 155 66 291 66 302 0
19 -7 20 -95 20 -68 0 -97 -4 -99 -12z"/>
<path d="M13591 853 c-9 -35 -174 -744 -188 -805 l-5 -28 100 0 100 0 31 133
c17 72 62 265 100 427 38 162 67 298 64 303 -2 4 -46 7 -98 7 l-94 0 -10 -37z"/>
<path d="M4506 639 c-28 -118 -71 -305 -96 -416 l-47 -203 107 0 106 0 35 148
34 147 62 3 62 3 76 -151 75 -150 121 0 121 0 -45 82 c-25 46 -68 123 -95 173
l-50 90 61 32 c112 60 159 130 160 238 1 94 -39 150 -132 187 -50 19 -80 22
-281 26 l-225 4 -49 -213z m378 51 c55 -12 79 -39 78 -88 -1 -81 -54 -120
-177 -129 -110 -9 -107 -12 -79 107 13 56 27 106 30 111 7 12 97 11 148 -1z"/>
<path d="M10106 733 c-16 -65 -57 -244 -92 -398 -35 -154 -67 -288 -70 -297
-5 -16 4 -18 103 -18 l109 0 30 133 30 132 110 6 c221 12 357 82 414 212 30
67 30 169 1 226 -48 93 -144 121 -422 121 l-185 0 -28 -117z m391 -62 c77 -48
37 -175 -66 -210 -41 -13 -171 -15 -171 -1 0 8 13 65 45 208 5 20 11 22 83 22
58 0 85 -5 109 -19z"/>
<path d="M12295 748 c-24 -99 -29 -106 -72 -110 -35 -3 -37 -5 -50 -53 -19
-73 -18 -75 27 -75 37 0 40 -2 35 -22 -43 -182 -75 -328 -75 -346 0 -51 28
-92 76 -114 41 -18 62 -20 156 -16 60 3 113 9 118 14 5 5 16 38 24 73 l15 63
-22 -7 c-51 -15 -112 -16 -132 -2 -25 19 -24 61 9 202 14 61 28 120 31 133 5
21 10 22 100 22 l95 0 6 28 c3 15 7 34 9 42 2 8 6 25 10 38 6 22 5 22 -83 22
-49 0 -91 2 -94 5 -3 3 3 40 13 83 11 42 19 80 19 85 0 4 -45 7 -99 7 l-99 0
-17 -72z"/>
<path d="M5528 641 c-72 -23 -117 -51 -162 -101 -97 -108 -131 -281 -76 -390
68 -134 273 -183 496 -118 l71 20 17 75 c10 41 15 77 12 80 -3 3 -34 -6 -68
-20 -89 -38 -162 -50 -228 -37 -67 13 -101 36 -119 83 -25 68 -28 67 228 67
209 0 229 2 236 18 14 35 18 169 5 206 -17 52 -74 103 -133 121 -70 21 -208
19 -279 -4z m171 -112 c37 -13 51 -35 51 -83 l0 -36 -136 0 -135 0 23 43 c16
29 37 49 68 65 49 25 82 27 129 11z"/>
<path d="M6265 647 c-75 -20 -121 -45 -159 -87 -75 -83 -58 -207 36 -256 14
-7 72 -27 129 -43 111 -32 135 -47 125 -79 -10 -32 -57 -44 -148 -40 -79 3
-121 17 -229 75 -4 2 -14 -27 -23 -64 -9 -37 -19 -75 -22 -84 -6 -23 64 -46
183 -61 222 -27 398 44 433 173 31 114 -25 172 -211 219 -126 32 -153 56 -110
99 43 43 192 35 287 -15 26 -14 50 -21 54 -17 6 7 40 132 40 147 0 3 -24 13
-52 22 -71 21 -267 28 -333 11z"/>
<path d="M6965 642 c-164 -57 -254 -176 -263 -349 -4 -74 -2 -88 23 -138 30
-62 71 -98 142 -125 99 -37 250 -35 375 6 43 14 49 19 58 57 6 23 15 57 20 76
5 19 7 38 4 42 -2 4 -32 -5 -67 -21 -176 -83 -357 -44 -357 76 l0 34 233 2
232 3 13 68 c27 138 -23 237 -137 271 -73 22 -211 21 -276 -2z m203 -137 c16
-19 22 -37 20 -59 l-3 -31 -132 -3 c-152 -3 -155 -1 -97 66 40 47 79 63 144
58 33 -3 50 -11 68 -31z"/>
<path d="M8489 637 c-158 -55 -249 -188 -249 -364 0 -81 13 -121 55 -171 83
-99 292 -128 482 -66 l51 16 20 79 c14 55 16 79 8 79 -6 0 -45 -14 -86 -32
-62 -26 -88 -31 -150 -31 -116 -1 -176 37 -182 115 l-3 33 232 3 232 2 12 42
c6 24 9 74 7 114 -4 90 -35 141 -105 175 -72 35 -232 39 -324 6z m191 -112
c30 -16 55 -70 44 -98 -5 -15 -24 -17 -135 -17 -89 0 -129 3 -129 11 0 27 44
79 83 98 49 25 97 27 137 6z"/>
<path d="M11052 640 c-74 -26 -114 -53 -166 -111 -69 -77 -91 -142 -91 -271 0
-102 1 -108 30 -150 21 -28 50 -53 90 -73 54 -28 67 -30 164 -30 98 0 111 2
173 32 134 63 208 166 230 320 9 66 9 87 -5 134 -22 74 -79 133 -150 154 -72
21 -209 19 -275 -5z m197 -145 c24 -23 26 -33 26 -103 -1 -110 -36 -190 -103
-234 -36 -24 -113 -24 -141 0 -68 54 -33 272 53 336 17 13 40 26 51 29 38 10
89 -2 114 -28z"/>
<path d="M12858 647 c-37 -7 -70 -16 -74 -19 -8 -9 -34 -130 -29 -138 2 -4 46
4 97 18 149 38 258 18 258 -48 0 -28 -2 -29 -57 -35 -294 -31 -399 -86 -424
-221 -27 -142 91 -232 247 -191 35 9 81 28 103 42 23 14 42 25 44 25 2 0 2
-14 -1 -30 l-4 -30 98 0 99 0 54 239 c59 259 60 293 15 338 -45 45 -89 56
-229 59 -75 2 -159 -2 -197 -9z m222 -344 c-1 -5 -7 -33 -14 -63 -11 -50 -17
-57 -56 -79 -78 -43 -180 -25 -180 31 0 70 76 112 208 117 23 0 42 -2 42 -6z"/>
<path d="M9458 636 c-26 -7 -71 -27 -99 -44 -59 -38 -62 -38 -55 -12 3 11 9
29 12 40 5 20 2 21 -98 18 l-103 -3 -67 -290 c-37 -160 -67 -298 -68 -307 0
-16 11 -18 98 -18 l97 0 48 207 c27 114 50 209 52 211 12 12 91 22 164 21 62
-2 85 2 91 12 13 24 40 161 34 170 -7 12 -49 10 -106 -5z"/>
<path d="M12055 643 c-38 -8 -96 -33 -136 -59 l-41 -26 7 41 7 41 -101 0 c-56
0 -101 -3 -101 -7 0 -3 -31 -140 -70 -304 -38 -164 -70 -301 -70 -304 0 -3 45
-5 100 -5 95 0 100 1 105 23 3 12 25 105 48 207 l43 185 34 12 c20 7 75 12
129 11 l94 -2 18 75 c27 110 26 119 -13 118 -18 -1 -42 -3 -53 -6z"/>
</g>
</svg>
