<svg height="41.757" viewBox="0 0 154.938 41.757" width="154.938" xmlns="http://www.w3.org/2000/svg">
  <path d="m-66.183 45.3h-6.905l-11.294 5.568h6.9z" fill="#076baf" transform="translate(190.681 -11.926)" />
  <path d="m-80.322 45.3h-6.77l-11.3 5.568h6.771z" fill="#076baf" transform="translate(192.067 -11.926)" />
  <path d="m-112.247 50.874h6.638l11.3-5.57h-6.636z" fill="#076baf" transform="translate(193.439 -11.926)" />
  <path d="m-120.131 45.3h-82.079v5.568h70.784z" fill="#076baf" transform="translate(202.341 -11.926)" />
  <path d="m-54.017 45.3-11.3 5.568h31.459v-5.568z" fill="#076baf" transform="translate(188.794 -11.926)" />
  <path d="m-89.754 8.2h-29.836v5.751h12.033v19.149h5.768v-19.145h12.035z" fill="#076baf" transform="translate(194.165 -8.135)" />
  <path d="m111.642.204h5.774v24.761h-5.774z" fill="#076baf" />
  <path d="m-195.377 13.88h23.092v-5.751h-24.858c-2.964 0-5.212 3.079-5.212 5.452v14.113c0 2.371 2.248 5.452 5.212 5.452h1.264 23.594v-5.754h-23.092c-.938 0-1.342-.267-1.342-.734v-3.079h24.433v-5.75h-24.433v-3.21c0-.47.4-.739 1.342-.739" fill="#076baf" transform="translate(202.356 -8.128)" />
  <path d="m-39.038 8.146h-1.339v-.019h-18.241c-2.964 0-5.215 3.078-5.215 5.454v14.212c0 2.375 2.252 5.452 5.215 5.452h18.241v-.016h1.339c2.962 0 5.213-3.076 5.213-5.455v-3.927h-5.927v2.895c0 .469-.4.735-1.342.735v.018h-15.757c-.936 0-1.339-.269-1.339-.736v-12.143c0-.466.4-.734 1.339-.734h15.759v.017c.942 0 1.342.267 1.342.734v2.9h5.927v-3.933c0-2.373-2.252-5.45-5.213-5.45" fill="#076baf" transform="translate(188.647 -8.127)" />
  <path d="m-136.18 8.146h-1.439v-.019h-18.143c-2.963 0-5.211 3.078-5.211 5.454v4.549c0 2.375 2.248 5.45 5.211 5.45h17.71c.942 0 1.345.268 1.345.734v2.4c0 .468-.4.735-1.345.735h-15.738c-.939 0-1.341-.268-1.341-.736v-1.913h-5.842v2.944c0 2.373 2.248 5.451 5.211 5.451h19.582c2.961 0 5.212-3.077 5.212-5.449v-4.466c0-2.376-2.251-5.452-5.212-5.452h-17.61c-.939 0-1.341-.268-1.341-.737v-2.475c0-.466.4-.734 1.341-.734h15.738v.018c.942 0 1.345.267 1.345.734v1.94h5.739v-2.974c0-2.373-2.251-5.45-5.212-5.45" fill="#076baf" transform="translate(198.26 -8.127)" />
</svg>