<?xml version="1.0" standalone="no"?>
<!DOCTYPE svg PUBLIC "-//W3C//DTD SVG 20010904//EN"
 "http://www.w3.org/TR/2001/REC-SVG-20010904/DTD/svg10.dtd">
<svg version="1.0" xmlns="http://www.w3.org/2000/svg"
 width="1280.000000pt" height="297.000000pt" viewBox="0 0 1280.000000 297.000000"
 preserveAspectRatio="xMidYMid meet">

<g transform="translate(0.000000,297.000000) scale(0.100000,-0.100000)"
fill="#000000" stroke="none">
<path d="M2825 2874 c-469 -47 -888 -157 -1320 -347 l-140 -62 65 -3 c60 -3
74 1 170 46 859 403 1791 386 2293 -42 26 -23 73 -72 103 -110 214 -268 237
-599 65 -952 -75 -154 -159 -271 -297 -414 l-111 -115 -15 -77 c-8 -43 -12
-78 -9 -78 24 1 317 230 430 336 324 304 515 689 486 977 -44 433 -400 713
-1045 823 -91 15 -571 28 -675 18z"/>
<path d="M1146 2342 c-2 -4 -82 -374 -176 -822 -94 -448 -175 -832 -180 -853
l-8 -37 371 2 370 3 178 845 c98 465 179 851 179 858 0 9 -79 12 -364 12 -201
0 -367 -4 -370 -8z"/>
<path d="M2096 2333 c-4 -14 -330 -1559 -353 -1674 l-6 -29 349 2 348 3 69
325 c37 178 70 327 73 330 9 9 201 2 242 -9 46 -13 79 -42 88 -78 6 -21 -55
-344 -103 -550 l-5 -23 345 0 c321 0 346 1 351 18 11 37 116 545 122 590 16
121 -59 217 -212 269 l-48 16 52 18 c193 66 307 183 348 356 60 254 -101 415
-443 443 -65 5 -364 10 -665 10 -512 0 -547 -1 -552 -17z m896 -316 c19 -8 43
-25 52 -38 21 -30 21 -102 0 -165 -39 -114 -81 -138 -256 -149 -65 -3 -122 -4
-127 -1 -7 5 29 204 64 355 6 24 6 24 119 18 64 -3 127 -12 148 -20z"/>
<path d="M925 2203 c-423 -292 -709 -638 -806 -976 -32 -111 -37 -290 -11
-393 41 -163 132 -303 269 -414 514 -416 1580 -434 2568 -45 88 35 196 80 240
102 l80 38 -60 3 c-55 3 -71 -2 -200 -61 -786 -359 -1637 -371 -2152 -30 -79
52 -207 176 -255 247 -166 243 -182 557 -45 861 73 162 188 325 340 480 86 88
88 91 103 163 9 41 14 75 12 77 -1 2 -39 -22 -83 -52z"/>
<path d="M8936 1127 c-55 -248 -101 -462 -104 -474 -4 -22 -2 -23 81 -23 73 0
86 3 91 18 3 9 48 213 101 452 52 239 97 445 100 458 5 22 4 22 -82 22 l-88 0
-99 -453z"/>
<path d="M9356 1563 c-3 -10 -48 -216 -101 -458 -53 -242 -98 -448 -101 -457
-5 -16 4 -18 83 -18 l88 0 99 453 c55 248 101 462 104 475 4 21 2 22 -81 22
-73 0 -86 -3 -91 -17z"/>
<path d="M12535 1568 c-2 -7 -18 -78 -35 -158 -44 -202 -36 -186 -76 -151 -93
82 -249 60 -357 -52 -94 -96 -152 -250 -145 -387 6 -145 68 -205 204 -197 83
4 140 32 194 94 l33 37 -6 -39 c-4 -22 -10 -50 -13 -63 -7 -23 -6 -23 82 -20
l88 3 102 465 c57 256 103 468 104 473 0 13 -170 8 -175 -5z m-124 -416 l26
-29 -30 -138 -31 -137 -52 -40 c-65 -49 -107 -62 -152 -47 -60 20 -77 98 -47
214 19 71 57 144 95 180 53 51 144 50 191 -3z"/>
<path d="M4810 1512 c0 -5 -43 -203 -95 -441 -52 -238 -95 -434 -95 -437 0 -2
40 -4 89 -4 84 0 89 1 94 23 16 63 187 847 187 856 0 7 -32 11 -90 11 -49 0
-90 -4 -90 -8z"/>
<path d="M9966 1503 c-3 -10 -46 -205 -96 -433 -50 -228 -93 -421 -95 -428 -4
-10 15 -12 82 -10 l87 3 41 180 40 180 53 0 54 0 70 -182 71 -183 108 0 c60 0
109 3 109 6 0 3 -43 96 -96 206 -53 110 -92 203 -87 207 4 4 34 24 65 45 99
66 152 155 153 258 0 72 -14 102 -69 142 -25 20 -43 21 -256 24 -213 3 -229 2
-234 -15z m333 -118 c85 -43 34 -191 -84 -246 -48 -22 -170 -27 -162 -6 2 6
17 69 32 140 l28 127 79 0 c50 0 89 -5 107 -15z"/>
<path d="M5425 1296 c-62 -20 -97 -41 -145 -87 l-43 -42 6 32 c4 17 10 45 13
61 l7 30 -87 0 c-84 0 -86 0 -92 -27 -4 -14 -37 -163 -74 -330 l-66 -303 88 0
c48 0 88 2 88 4 0 17 83 387 92 409 6 15 29 43 52 61 108 88 196 88 196 2 0
-25 -43 -235 -94 -458 -4 -16 5 -18 83 -18 l87 0 58 265 c42 188 56 275 52
299 -17 92 -113 136 -221 102z"/>
<path d="M5980 1296 c-161 -43 -290 -240 -290 -441 0 -125 44 -192 140 -215
89 -21 176 8 253 85 46 46 48 46 42 19 -32 -141 -58 -187 -123 -217 -59 -27
-175 -28 -242 -3 -25 10 -52 20 -60 22 -12 4 -20 -9 -33 -49 -9 -29 -17 -58
-17 -64 0 -15 112 -44 195 -50 143 -11 293 45 361 134 49 64 70 132 140 448
36 160 67 298 70 308 5 15 -3 17 -75 17 -80 0 -81 0 -96 -31 l-16 -30 -34 30
c-56 49 -127 61 -215 37z m163 -111 c65 -32 68 -45 38 -182 -23 -108 -30 -126
-60 -157 -45 -47 -123 -80 -168 -71 -53 10 -76 53 -69 135 15 200 140 333 259
275z"/>
<path d="M6734 1296 c-174 -44 -304 -222 -304 -415 0 -94 16 -139 64 -188 59
-58 128 -77 260 -70 56 3 124 11 153 18 l52 12 12 54 c7 29 10 55 8 58 -3 2
-32 -3 -64 -12 -78 -21 -191 -22 -230 -3 -45 23 -75 75 -75 131 l0 49 204 0
c185 0 205 2 211 18 4 9 9 62 12 117 4 91 2 104 -19 145 -30 59 -84 89 -170
95 -35 3 -86 -1 -114 -9z m101 -102 c37 -15 56 -94 35 -149 l-10 -26 -112 3
c-129 3 -130 4 -80 88 44 72 111 105 167 84z"/>
<path d="M7540 1301 c-49 -15 -95 -44 -139 -85 l-43 -41 6 40 c4 22 9 48 12
58 5 15 -4 17 -83 17 l-88 0 -69 -318 c-38 -174 -71 -323 -74 -329 -3 -10 18
-13 85 -13 l88 0 45 208 c41 191 48 210 78 244 50 56 111 81 181 76 l58 -4 12
63 c6 34 14 69 17 78 5 12 -1 15 -27 14 -19 0 -45 -4 -59 -8z"/>
<path d="M7834 1300 c-130 -26 -224 -121 -224 -227 0 -66 31 -101 149 -163
116 -61 130 -75 116 -116 -25 -69 -141 -87 -268 -41 -47 17 -69 21 -72 14 -5
-19 -25 -105 -25 -111 0 -2 34 -12 76 -21 114 -26 252 -18 326 18 103 50 170
156 154 241 -9 48 -59 89 -172 141 -75 35 -95 49 -100 69 -20 83 114 121 252
72 l42 -14 12 60 c6 33 10 61 8 63 -6 6 -160 25 -196 24 -20 -1 -55 -5 -78 -9z"/>
<path d="M8460 1300 c-193 -41 -330 -221 -330 -434 0 -165 91 -246 276 -246
218 0 377 142 416 371 23 133 -19 236 -114 283 -60 30 -174 41 -248 26z m128
-116 c71 -50 70 -209 -4 -344 -33 -61 -71 -96 -120 -109 -110 -30 -174 62
-144 211 23 117 82 217 145 244 41 18 96 17 123 -2z"/>
<path d="M10840 1304 c-78 -14 -161 -38 -167 -47 -4 -6 -12 -34 -18 -62 l-12
-52 59 24 c79 32 183 41 225 19 36 -18 42 -41 29 -108 l-9 -48 -76 0 c-212 0
-360 -109 -361 -265 0 -133 128 -186 276 -116 34 16 65 34 68 40 12 18 26 13
36 -13 17 -45 52 -59 135 -54 42 3 77 7 79 9 2 2 7 25 11 51 7 43 5 47 -15 50
-46 6 -46 25 -1 232 28 126 41 205 36 223 -11 47 -35 74 -82 95 -44 19 -161
32 -213 22z m80 -390 c0 -26 -22 -108 -33 -122 -15 -19 -77 -49 -118 -57 -45
-8 -89 23 -89 63 0 42 36 91 83 112 54 25 157 28 157 4z"/>
<path d="M11655 1296 c-58 -18 -83 -33 -138 -85 -44 -40 -49 -43 -44 -21 4 14
10 42 13 63 l7 37 -87 0 c-47 0 -86 -2 -86 -5 0 -2 -31 -147 -70 -321 -38
-174 -70 -320 -70 -325 0 -5 38 -9 84 -9 72 0 85 3 90 18 2 9 23 103 46 207
41 187 43 191 83 234 72 75 157 101 197 61 24 -24 26 -11 -36 -295 -24 -110
-44 -205 -44 -212 0 -10 23 -13 84 -13 79 0 84 1 89 23 51 205 108 500 104
535 -10 95 -110 143 -222 108z"/>
</g>
</svg>
