<?xml version="1.0" standalone="no"?>
<!DOCTYPE svg PUBLIC "-//W3C//DTD SVG 20010904//EN"
 "http://www.w3.org/TR/2001/REC-SVG-20010904/DTD/svg10.dtd">
<svg version="1.0" xmlns="http://www.w3.org/2000/svg"
 width="6089.000000pt" height="1028.000000pt" viewBox="0 0 6089.000000 1028.000000"
 preserveAspectRatio="xMidYMid meet">

<g transform="translate(0.000000,1028.000000) scale(0.100000,-0.100000)"
fill="#000000" stroke="none">
<path d="M58200 10278 c-3 -3 -51 -8 -108 -12 -450 -29 -936 -223 -1277 -507
-598 -500 -995 -1363 -1150 -2499 -9 -63 -18 -126 -20 -140 -26 -162 -67 -675
-80 -995 -3 -77 -8 -169 -10 -205 -23 -342 -30 -1590 -11 -1785 2 -22 7 -96
11 -165 9 -185 20 -318 41 -515 92 -859 306 -1637 601 -2195 342 -645 911
-1078 1593 -1210 199 -39 505 -52 708 -29 364 39 691 169 984 390 168 127 414
398 500 550 l23 41 5 -408 5 -409 438 -3 437 -2 -2 2577 -3 2578 -1462 3
-1463 2 0 -460 0 -460 971 0 971 0 -5 -618 c-3 -339 -9 -642 -12 -672 -27
-252 -39 -344 -61 -469 -148 -866 -589 -1504 -1164 -1685 -133 -43 -264 -59
-415 -52 -203 9 -351 48 -536 142 -139 71 -243 149 -362 273 -358 373 -578
994 -681 1926 -14 121 -18 163 -32 320 -3 33 -7 80 -9 105 -2 25 -7 86 -10
135 -4 50 -8 108 -10 130 -2 22 -7 99 -10 170 -4 72 -9 146 -10 165 -2 19 -6
150 -9 290 -3 140 -9 320 -12 400 -4 134 10 850 21 1000 2 36 9 135 15 220 14
199 36 432 61 640 135 1139 358 1769 765 2160 114 110 195 167 324 229 190 91
345 125 575 125 221 -1 377 -35 551 -121 483 -238 799 -841 878 -1678 18 -195
26 -288 26 -337 l0 -37 505 -1 506 -1 -2 143 c-4 402 -77 865 -196 1233 -250
777 -756 1346 -1403 1580 -124 44 -327 92 -485 115 -139 19 -494 39 -505 28z"/>
<path d="M0 5150 l0 -4970 5060 0 5060 0 -3 3707 c-2 2040 -7 3733 -11 3763
-4 30 -14 109 -22 175 -100 807 -596 1531 -1337 1952 -310 176 -610 269 -1047
325 -72 9 -1016 12 -3897 15 l-3803 3 0 -4970z m7745 4725 c386 -51 734 -180
1057 -393 151 -100 248 -180 383 -316 646 -648 877 -1621 591 -2488 -304 -925
-1095 -1571 -2066 -1687 -138 -16 -472 -11 -615 10 -750 110 -1392 541 -1777
1192 -232 392 -342 814 -333 1282 6 343 62 614 192 925 350 839 1180 1427
2103 1493 97 7 351 -3 465 -18z"/>
<path d="M13220 5150 l0 -4970 1983 2 1982 3 0 485 0 485 -1467 3 -1468 2 0
4480 0 4480 -515 0 -515 0 0 -4970z"/>
<path d="M17360 9605 l0 -515 513 2 512 3 0 510 0 510 -512 3 -513 2 0 -515z"/>
<path d="M21297 10113 c-4 -3 -7 -233 -7 -510 l0 -503 510 0 510 0 0 510 0
510 -503 0 c-277 0 -507 -3 -510 -7z"/>
<path d="M23580 5150 l0 -4971 1318 4 c828 3 1352 9 1412 15 173 20 204 24
320 43 654 110 1137 417 1483 944 259 396 430 937 476 1510 11 143 11 549 0
690 -47 572 -224 1083 -498 1440 -120 157 -267 296 -429 407 -102 69 -282 165
-354 188 -47 15 -56 28 -26 39 13 5 59 29 101 54 235 139 457 370 602 627 160
281 256 589 312 1000 25 190 26 727 0 909 -93 658 -309 1150 -659 1503 -324
326 -695 481 -1310 545 -129 13 -355 16 -1450 20 l-1298 5 0 -4972z m2655
4027 c145 -25 237 -52 344 -103 450 -213 712 -758 720 -1499 4 -415 -66 -780
-205 -1057 -180 -360 -440 -570 -813 -654 -210 -47 -307 -52 -1018 -53 l-663
-1 0 1696 0 1695 768 -4 c659 -3 781 -6 867 -20z m-355 -4251 c384 -12 635
-66 874 -189 388 -198 661 -609 765 -1149 88 -461 48 -1069 -101 -1502 -149
-436 -435 -754 -796 -886 -279 -102 -490 -119 -1439 -120 l-583 0 0 1928 0
1927 552 -2 c304 -1 632 -4 728 -7z"/>
<path d="M29560 5151 l0 -4971 1228 1 c675 1 1292 6 1372 10 764 44 1277 251
1684 680 387 407 623 969 713 1699 22 181 25 724 5 895 -67 570 -223 1003
-488 1355 -97 129 -295 318 -425 407 -109 74 -266 157 -356 189 -29 10 -53 21
-53 24 0 3 37 25 82 50 251 138 491 381 647 656 168 296 282 692 318 1099 15
170 9 668 -10 805 -111 803 -424 1384 -925 1721 -288 193 -593 283 -1137 334
-38 4 -652 9 -1362 12 l-1293 5 0 -4971z m2655 4026 c142 -24 237 -52 344
-103 119 -56 197 -112 292 -210 222 -231 362 -572 414 -1014 13 -114 14 -555
0 -645 -36 -240 -69 -384 -121 -523 -202 -540 -558 -807 -1149 -861 -55 -5
-396 -9 -757 -10 l-658 -1 0 1696 0 1695 768 -4 c659 -3 781 -6 867 -20z m-60
-4270 c241 -34 404 -81 570 -164 324 -161 572 -476 708 -898 78 -245 110 -470
111 -785 0 -309 -27 -534 -95 -798 -86 -335 -217 -583 -413 -778 -184 -185
-388 -292 -659 -348 -206 -43 -297 -47 -1059 -53 l-738 -5 0 1926 0 1927 733
-4 c596 -3 752 -7 842 -20z"/>
<path d="M35540 5150 l0 -4970 2225 0 2225 0 0 485 0 485 -1715 0 -1715 0 0
1865 0 1865 1555 0 1555 0 0 480 0 480 -1557 0 -1558 0 2 1642 c2 904 3 1646
3 1651 0 4 747 7 1660 7 l1660 0 0 490 0 490 -2170 0 -2170 0 0 -4970z"/>
<path d="M40817 10114 c-4 -4 -7 -2241 -7 -4971 l0 -4963 510 0 510 0 0 2223
0 2222 738 -1 c744 0 835 -3 996 -30 535 -90 848 -474 945 -1159 40 -282 60
-649 86 -1560 3 -104 8 -219 10 -255 3 -36 7 -121 11 -190 23 -493 92 -932
183 -1167 l32 -83 585 0 c410 0 584 3 584 11 0 6 -19 43 -42 82 -159 272 -239
552 -292 1022 -12 109 -25 525 -31 995 -3 272 -8 522 -10 555 -1 33 -6 141
-10 240 -4 99 -8 182 -10 185 -1 3 -6 48 -9 100 -4 52 -9 102 -11 110 -2 8 -6
42 -10 75 -17 167 -79 439 -135 600 -109 307 -296 575 -522 745 -79 60 -265
159 -338 181 l-40 12 75 41 c598 326 978 1025 1052 1936 12 149 9 672 -6 795
-20 173 -21 183 -42 304 -82 474 -257 889 -508 1201 -116 145 -299 316 -436
407 -265 175 -625 286 -1035 318 -41 4 -88 9 -105 12 -45 9 -2709 16 -2718 7z
m2516 -925 c389 -37 631 -134 832 -334 146 -145 245 -303 329 -527 101 -271
157 -658 150 -1033 -11 -586 -172 -1060 -466 -1370 -226 -239 -488 -356 -882
-394 -66 -7 -382 -11 -788 -11 l-678 0 0 1840 0 1840 708 -1 c389 -1 746 -5
795 -10z"/>
<path d="M47057 10113 c-4 -3 -7 -2240 -7 -4970 l0 -4963 515 0 515 0 0 4970
0 4970 -508 0 c-280 0 -512 -3 -515 -7z"/>
<path d="M49550 5150 l0 -4970 495 0 495 0 0 3842 c0 2113 1 3843 3 3844 1 2
42 -119 91 -269 48 -150 130 -393 182 -540 66 -186 2468 -6599 2569 -6860 7
-16 42 -17 584 -15 l576 3 0 4965 0 4965 -498 3 -498 2 3 -3844 3 -3843 -44
126 c-156 453 -270 764 -558 1531 -437 1164 -930 2473 -1653 4400 -332 883
-608 1611 -613 1618 -7 9 -134 12 -573 12 l-564 0 0 -4970z"/>
<path d="M17363 5578 c2 -1679 6 -3071 9 -3093 4 -22 9 -80 13 -130 13 -192
56 -447 105 -632 223 -834 813 -1420 1640 -1629 236 -60 382 -77 665 -78 380
-2 576 23 862 110 887 268 1456 968 1599 1964 50 356 48 163 51 3468 l4 3072
-510 0 -510 0 -4 -3042 c-4 -3122 -3 -3090 -43 -3333 -110 -685 -452 -1118
-1007 -1279 -332 -96 -737 -61 -1042 91 -261 130 -439 313 -576 588 -128 260
-187 500 -219 890 -8 88 -11 1081 -10 3108 l1 2977 -516 0 -516 0 4 -3052z"/>
</g>
</svg>
