<?xml version="1.0" encoding="UTF-8"?> <svg xmlns="http://www.w3.org/2000/svg" id="Layer_2" viewBox="0 0 403.07 403.07"><defs><style>.cls-1{fill:#d81920;}.cls-1,.cls-2,.cls-3{stroke-width:0px;}.cls-2{fill:#d71f27;}.cls-3{fill:#231f20;}</style></defs><g id="Layer_1-2"><path class="cls-3" d="M342.24,242.97l-1.02-2.07c-.44-.88-1.2-1.96-1.71-2.47-.5-.5-.95-.63-2.06-.63h-.47v5.17h-2.53v-12.59h6.21c2.69,0,3.95,1.53,3.95,3.52s-1.26,3.26-3.39,3.52v.06c1.09.38,1.43.73,2.69,2.94l1.46,2.54h-3.13M339.62,235.81c1.74,0,2.31-.86,2.31-1.74,0-1.11-.89-1.73-2.6-1.73h-2.35v3.46h2.64ZM330.3,236.62c0,5.25,4.24,9.53,9.5,9.53s9.53-4.27,9.53-9.53-4.27-9.5-9.53-9.5-9.5,4.23-9.5,9.5ZM351.65,236.62c0,6.55-5.29,11.84-11.85,11.84s-11.84-5.3-11.84-11.84,5.29-11.84,11.84-11.84,11.85,5.27,11.85,11.84Z"></path><path class="cls-3" d="M99.63,198.12c8.28-8.28,13.42-19.71,13.42-32.34,0-25.22-20.45-45.67-45.67-45.67v25.93c10.89,0,19.73,8.83,19.73,19.73,0,9.39-6.57,17.24-15.36,19.23-1.44-.15-2.9-.23-4.37-.23v26.67c1.47,0,2.93-.08,4.37-.23,8.79,1.98,15.36,9.83,15.36,19.23v50.5h25.94v-50.5c0-12.64-5.13-24.08-13.42-32.33"></path><path class="cls-3" d="M334.65,283.64c-21.98-3.13-38.87-22.02-38.87-44.85l.19-115.49h25.51v25.48h12.96v24.83h-12.96l.04,65.18c0,8.52,5.51,15.77,13.12,18.45l.02,26.4"></path><path class="cls-2" d="M373.99,305.72c57.55-95.24,27.01-219.1-68.25-276.66C210.48-28.49,86.61,2.09,29.05,97.33l17.17,10.38C100.9,17.21,218.6-11.83,309.1,42.85c90.52,54.66,119.58,172.37,64.9,262.87"></path><rect class="cls-3" x="125.9" y="161.1" width="25.49" height="119.86"></rect><rect class="cls-3" x="257.02" y="161.1" width="25.5" height="119.86"></rect><rect class="cls-3" x="257" y="123.44" width="25.47" height="25.45"></rect><path class="cls-1" d="M357.07,295.5c49.24-81.5,23.09-187.5-58.43-236.74C217.14,9.52,111.14,35.67,61.89,117.17,108.49,40.05,208.79,15.3,285.9,61.9c71.47,43.17,97.96,132.46,64.38,206.68l6.78,26.91"></path><rect class="cls-3" x="126.11" y="123.44" width="25.46" height="25.45"></rect><path class="cls-3" d="M163.95,161.09v53.39c0,29.54,15.98,55.47,39.8,69.32,24.05-13.8,40.21-39.61,40.21-69.32l-.26-53.39h-25.5v48.29c0,15.64-5.39,29.82-14.42,41.19-8.81-11.31-14.07-25.75-14.07-41.19v-48.29h-25.76"></path><path class="cls-1" d="M29.07,97.35C-28.48,192.6,2.06,316.46,97.32,374c95.26,57.55,219.14,26.99,276.7-68.26l-17.17-10.38c-54.69,90.5-172.38,119.54-262.88,64.86C3.46,305.56-25.62,187.85,29.07,97.35"></path><path class="cls-1" d="M46,107.58c-49.25,81.5-23.09,187.5,58.41,236.74,81.52,49.23,187.52,23.09,236.76-58.42-46.6,77.12-146.89,101.87-224.02,55.27C45.69,298,19.2,208.71,52.78,134.49l-6.78-26.91"></path></g></svg> 