<svg xmlns="http://www.w3.org/2000/svg" viewBox="0 0 1000 674" preserveAspectRatio="xMidYMid meet"><style>.u{fill:rgba(255,255,255,.04);stroke:rgba(125,205,255,.16);stroke-width:1;stroke-linejoin:round;vector-effect:non-scaling-stroke}.s{fill:rgba(0,122,214,.16);stroke:rgba(125,205,255,.6);stroke-width:1;stroke-linejoin:round;vector-effect:non-scaling-stroke;fill-rule:evenodd}</style><g><path class="u" d="M291.0,-53.9 290.8,89.9 228.5,89.9 192.4,77.4 113.4,50.8 116.2,43.2 122.3,41.9 124.0,39.0 122.3,32.7 118.1,32.5 116.1,20.0 122.3,15.2 123.2,10.2 122.0,2.3 125.7,-3.7 130.6,-5.9 134.3,-10.3 128.2,-15.1 124.0,-24.0 118.9,-29.5 118.9,-33.7 120.8,-38.4 120.1,-44.6 117.6,-51.1 115.7,-53.9 127.0,-53.9 130.7,-53.9 133.8,-53.9 137.0,-53.9 246.2,-53.9 291.0,-53.9Z"/><path class="u" d="M-145.6,-53.9 -119.3,-53.9 -78.1,-53.9 -46.2,-53.9 -6.6,-53.9 30.8,-53.9 60.3,-53.9 81.5,-53.9 118.9,-33.7 118.9,-29.5 124.0,-24.0 128.2,-15.1 134.3,-10.3 130.6,-5.9 125.7,-3.7 122.0,2.3 123.2,10.2 122.3,15.2 116.1,20.0 118.1,32.5 122.3,32.7 124.0,39.0 122.3,41.9 116.2,43.2 75.5,46.4 42.3,49.3 38.6,44.9 38.4,37.9 36.0,29.6 31.6,23.7 22.0,15.5 9.7,8.0 7.4,10.0 2.7,8.7 3.3,5.4 -2.1,-1.4 -9.3,0.0 -22.1,-4.9 -24.0,-9.0 -32.6,-14.0 -42.3,-13.8 -50.4,-16.0 -60.7,-15.1 -66.1,-19.5 -64.9,-28.9 -66.8,-30.4 -65.6,-37.1 -73.7,-42.0 -74.0,-48.9 -77.1,-49.2 -82.1,-53.9 -85.6,-53.9 -99.0,-53.9 -104.5,-53.9 -101.1,-53.9 -105.5,-53.9 -110.9,-53.9 -118.0,-53.9 -120.5,-53.9 -123.6,-53.9 -117.8,-53.9 -120.2,-53.9 -122.7,-53.9 -129.3,-53.9 -136.5,-53.9 -142.4,-53.9 -148.7,-53.9 -152.0,-53.9 -161.1,-53.9 -163.8,-53.9 -162.0,-53.9 -164.7,-53.9 -172.6,-53.9 -180.4,-53.9 -174.1,-53.9 -171.3,-53.9 -173.8,-53.9 -177.2,-53.9 -145.6,-53.9Z"/><path class="u" d="M340.9,-53.9 357.9,-53.9 435.8,-53.9 476.9,-53.9 475.5,-0.5 474.9,33.6 474.9,67.4 365.7,67.4 364.8,70.7 368.4,74.6 316.6,74.6 316.6,89.9 290.8,89.9 291.0,-53.9 340.9,-53.9Z"/><path class="u" d="M513.4,-53.9 569.2,-53.9 569.2,-19.0 571.6,-19.3 578.5,-12.9 582.2,-14.0 592.0,-13.6 594.2,-7.2 600.4,-7.5 607.1,-4.6 613.2,-4.9 615.7,-2.2 619.6,-5.3 625.5,-3.8 628.0,-0.1 632.4,0.4 634.8,5.0 640.2,0.6 647.4,3.2 650.1,5.9 653.7,4.7 656.2,8.9 663.9,1.3 666.1,5.2 672.9,5.2 679.3,7.6 681.6,10.6 687.7,5.4 694.3,3.7 697.3,5.6 704.6,2.3 706.2,4.1 714.2,4.3 716.2,1.3 724.1,4.7 727.1,8.5 738.9,12.2 742.1,15.4 748.2,13.7 752.6,15.2 752.6,33.1 752.6,67.6 759.3,75.0 759.5,82.4 767.9,96.0 768.4,103.2 765.2,111.9 762.2,115.4 763.2,120.0 761.0,123.5 763.4,130.0 756.1,142.0 758.8,145.3 753.8,145.5 737.7,150.1 732.0,147.5 731.0,142.0 727.0,145.8 724.1,144.9 722.6,149.7 725.8,151.8 726.3,158.0 720.6,164.7 711.3,173.0 692.8,181.8 690.9,180.4 685.3,182.6 685.2,180.5 677.6,182.0 674.0,177.8 671.9,178.7 679.9,187.4 674.0,190.1 668.5,188.5 667.6,194.6 660.7,200.9 653.7,212.5 649.1,224.7 645.7,223.7 644.9,228.2 648.4,227.1 646.7,235.9 644.4,236.3 644.2,241.3 647.1,244.0 647.9,254.2 651.3,257.7 652.1,264.2 654.8,269.9 645.4,273.4 641.5,269.0 634.3,267.3 624.7,267.7 616.4,262.1 610.2,261.6 605.5,257.1 599.1,255.7 594.7,251.4 591.8,241.3 586.2,235.2 586.9,230.0 584.4,224.5 585.2,219.7 581.4,214.3 578.2,213.8 572.9,209.0 571.3,202.9 566.7,197.3 560.1,192.7 556.9,182.6 553.9,179.8 549.8,171.7 548.5,165.0 544.6,160.2 538.1,156.0 536.5,153.0 530.5,150.5 525.8,143.1 512.3,141.4 504.2,141.8 497.3,139.2 495.8,142.7 488.3,143.8 482.8,150.8 479.4,162.1 477.6,162.3 473.3,168.9 468.3,169.1 460.7,163.9 441.7,155.6 438.0,151.2 430.5,147.0 425.3,137.4 425.0,128.7 419.8,121.7 418.6,115.6 415.2,111.7 403.2,106.0 396.8,98.2 391.6,95.5 386.0,88.8 378.3,85.3 372.9,76.5 368.4,74.6 364.8,70.7 365.7,67.4 474.9,67.4 474.9,33.6 475.5,-0.5 475.7,-53.9 513.4,-53.9Z"/></g><g><path class="s" d="M543.6,318.3 542.0,319.4 541.5,321.6 540.1,322.8 539.2,324.9 538.0,325.5 536.1,325.4 535.2,326.1 535.0,327.9 534.1,329.1 532.2,331.2 529.9,331.8 529.1,332.6 528.6,333.6 528.6,335.7 528.1,336.8 529.3,338.3 528.8,339.7 528.2,340.9 527.9,342.0 526.5,343.9 524.8,344.4 521.2,345.5 519.2,347.6 517.5,350.6 516.4,352.2 515.6,353.0 512.0,354.8 509.7,355.6 508.2,357.2 507.5,359.0 506.4,359.4 503.9,359.7 501.5,358.9 500.3,358.8 499.2,360.9 500.0,361.9 499.3,364.0 500.6,367.7 500.4,369.0 499.6,370.7 499.0,372.7 498.8,374.3 499.1,376.2 500.3,377.4 502.5,378.9 504.2,379.7 505.4,380.6 506.8,382.2 509.6,382.6 510.9,383.4 512.1,385.9 513.0,387.4 513.9,388.4 516.4,388.4 519.4,387.5 521.3,385.4 524.9,381.8 526.7,380.9 530.0,384.1 529.7,386.1 527.9,390.7 526.1,394.1 525.7,395.3 527.1,398.5 527.4,400.1 526.9,402.2 526.2,404.2 525.2,406.4 524.3,408.0 523.8,409.2 523.3,410.2 521.6,409.6 518.7,408.2 515.4,405.2 512.8,403.8 509.8,402.8 508.5,402.7 507.1,400.1 506.7,398.9 506.3,397.0 505.5,396.3 502.5,395.0 500.9,393.7 499.2,392.1 498.3,390.3 496.9,392.1 495.4,393.3 493.0,394.4 491.2,395.7 489.0,396.2 487.6,397.1 487.0,399.8 486.5,401.2 485.9,402.4 483.7,405.0 482.4,407.0 481.5,408.8 480.9,410.6 481.0,412.1 481.8,413.3 483.4,414.8 483.7,417.7 484.5,420.0 488.0,422.3 487.4,425.7 486.2,427.3 483.4,429.1 481.9,430.3 480.5,431.7 479.0,432.8 477.1,432.1 475.4,432.7 474.6,433.4 474.2,436.0 472.4,436.6 470.9,437.0 468.5,436.9 467.2,437.5 466.0,438.1 464.3,437.2 462.4,436.1 460.6,436.4 458.5,435.7 457.6,433.6 456.6,432.5 454.3,432.0 453.6,430.7 458.3,428.8 459.3,428.3 459.9,426.1 458.6,425.2 457.4,425.8 456.2,425.2 455.4,423.4 455.2,422.0 457.4,421.5 458.7,420.0 459.4,419.1 459.8,416.0 459.4,414.7 460.8,412.7 461.9,412.1 463.2,411.1 465.3,408.9 466.9,408.0 469.4,406.8 470.9,406.6 471.8,405.7 472.8,403.6 473.3,402.1 474.2,398.4 473.5,397.2 470.9,397.1 470.4,395.8 471.2,394.6 470.7,393.5 468.0,393.3 466.1,393.9 465.3,395.9 465.7,397.1 466.9,397.9 465.8,399.1 464.4,399.7 462.8,402.4 461.7,403.0 460.8,402.3 459.2,402.1 458.4,403.1 456.0,403.1 455.3,402.2 456.9,399.3 458.4,396.5 460.1,393.9 460.1,392.5 459.4,390.0 457.6,388.4 455.9,387.8 454.0,388.0 451.7,388.6 450.9,389.3 450.8,391.8 451.0,395.5 450.9,398.1 450.5,399.6 449.0,399.4 448.3,398.6 447.5,397.1 447.6,393.0 448.8,389.2 449.7,387.7 451.4,385.4 452.8,384.3 452.3,382.5 450.8,381.9 447.5,382.4 446.2,383.1 444.8,384.3 446.0,388.1 446.9,390.1 447.0,391.9 445.8,393.4 443.6,394.8 444.0,392.4 444.5,390.1 442.0,390.6 440.1,391.1 439.6,393.2 439.6,394.9 438.0,394.5 437.0,395.3 435.8,395.5 435.2,394.3 435.1,392.7 435.0,390.8 436.0,388.5 436.4,387.0 437.7,385.1 441.6,383.3 441.9,380.2 442.2,378.2 442.1,375.6 441.1,371.8 441.1,370.2 442.6,367.8 443.6,366.3 444.3,362.3 445.2,359.1 445.3,356.8 445.9,355.5 448.1,353.2 450.0,351.8 451.6,350.2 451.0,347.2 450.5,344.9 451.0,343.4 450.6,341.1 451.0,339.0 450.5,337.0 449.5,336.3 449.8,334.7 452.0,334.3 455.6,331.2 456.6,329.4 458.1,327.7 461.1,325.4 461.6,323.8 463.1,322.3 464.8,322.4 466.1,322.3 468.5,322.4 471.3,323.3 472.9,322.9 474.0,322.3 475.4,322.4 476.6,323.3 478.0,323.8 479.9,324.3 480.8,323.2 482.9,323.5 486.0,323.1 489.5,323.0 490.5,321.9 489.9,321.0 491.1,320.3 490.2,316.8 489.9,315.4 488.4,314.9 489.0,312.6 488.9,310.5 489.4,308.8 488.4,307.7 486.5,306.8 486.1,305.5 485.0,304.7 485.1,303.0 484.7,300.4 485.5,299.7 487.5,299.6 489.8,299.0 492.1,298.4 496.2,298.5 500.0,299.1 502.8,299.0 506.8,301.3 508.8,301.9 509.9,302.5 512.3,304.5 514.9,308.3 516.7,307.8 518.2,308.2 518.6,310.6 518.7,312.1 519.8,312.7 522.4,312.6 523.5,311.5 525.2,311.2 526.3,310.8 528.0,310.9 530.0,311.3 531.5,312.3 532.1,313.2 532.8,315.1 533.9,316.9 534.8,318.1 538.1,319.5 539.9,319.1 541.0,317.7 543.2,318.0Z"/><path class="s" d="M952.7,421.7 953.1,428.4 951.8,430.5 951.7,432.0 951.3,433.1 951.2,434.4 952.0,436.0 952.9,438.5 951.3,442.3 950.8,443.8 950.7,445.4 949.7,446.8 949.4,448.8 948.0,450.5 946.2,451.3 945.3,452.3 943.1,453.8 942.3,454.7 941.0,455.7 938.5,457.1 936.7,456.9 934.8,457.5 933.9,456.4 931.9,456.9 930.6,459.2 930.1,460.4 930.4,463.2 929.4,461.8 927.6,461.1 926.1,464.0 924.7,465.6 922.3,466.4 918.6,467.8 917.2,468.9 914.2,471.2 913.7,472.3 912.2,471.6 911.6,472.5 910.4,473.5 909.0,474.1 906.0,474.1 905.0,474.8 903.0,475.4 902.3,476.5 901.3,477.2 897.6,477.6 896.2,478.0 896.1,481.0 894.9,483.6 894.1,480.6 893.4,478.6 892.4,477.3 890.8,475.9 889.5,474.0 888.8,472.0 888.1,470.9 886.9,469.9 885.7,469.2 884.4,468.8 883.3,468.2 882.7,467.2 881.9,464.3 880.9,462.5 878.6,461.0 878.0,459.7 877.3,457.7 876.8,456.3 875.3,456.9 874.8,458.2 873.1,457.1 871.7,457.5 870.4,455.2 869.1,454.5 865.4,454.3 865.1,444.8 864.6,442.8 865.8,439.1 867.1,437.3 870.7,435.1 872.1,434.0 874.0,432.9 875.4,432.6 877.1,432.1 879.6,430.5 881.1,429.9 882.3,429.6 885.8,428.7 887.3,428.4 890.1,427.9 892.2,427.5 895.6,426.9 899.7,426.5 902.1,426.2 904.5,426.0 907.3,425.5 911.2,424.8 912.6,424.7 914.0,423.9 915.7,423.6 917.0,423.1 918.0,422.4 919.4,420.5 921.6,420.1 924.3,419.4 926.2,419.0 928.8,419.5 930.2,419.4 931.8,418.9 934.6,417.1 937.2,417.6 939.1,419.0 941.0,419.3 943.5,419.3 944.1,420.3 945.4,421.1 946.9,421.3 948.5,421.6 950.4,421.9 952.7,421.7Z"/><path class="s" d="M649.1,421.9 648.4,423.5 647.6,425.5 647.1,423.8 647.7,422.9 649.1,421.9Z M637.1,396.0 637.3,398.3 637.8,400.6 638.0,402.3 638.5,403.6 639.2,405.8 639.9,408.4 639.8,409.7 640.1,411.7 640.6,415.8 641.1,416.8 641.7,418.4 642.3,419.6 643.1,420.6 644.0,422.5 645.9,422.0 646.5,423.0 646.0,424.6 646.6,426.8 647.9,427.8 648.0,429.2 648.6,430.1 649.5,433.1 650.3,434.7 651.5,437.8 652.0,438.9 653.6,442.4 654.5,443.8 655.3,445.7 655.6,446.9 656.0,449.4 657.0,451.1 660.3,454.7 662.2,456.4 663.0,457.9 666.1,461.4 667.4,462.7 668.6,464.3 670.3,466.0 674.5,471.6 675.3,473.3 677.5,476.0 678.5,477.0 678.8,478.3 679.4,479.7 680.0,481.2 680.1,483.8 680.9,485.1 680.8,486.5 681.6,487.9 682.6,489.2 682.4,491.5 682.9,492.9 683.2,494.9 685.3,496.6 686.8,497.2 688.3,498.6 689.4,500.4 689.3,502.4 690.2,503.2 693.2,503.7 693.6,506.9 694.1,507.9 694.4,509.1 695.4,510.3 696.4,511.1 698.9,512.2 699.8,513.4 698.5,512.5 697.3,511.7 696.6,513.0 696.9,514.1 698.2,514.9 699.2,513.8 700.2,512.6 702.4,514.1 703.8,514.6 705.8,515.1 709.2,515.3 713.5,515.3 715.2,515.5 717.5,515.4 719.0,516.6 721.2,518.4 721.5,519.5 723.4,520.4 724.6,520.7 727.0,520.7 728.7,521.0 729.8,522.5 730.0,524.0 731.0,525.0 731.6,526.4 732.8,527.3 733.7,528.8 734.6,529.4 735.3,532.5 736.0,533.1 737.1,533.7 738.5,534.1 741.3,533.8 743.2,533.6 747.1,532.7 752.1,531.3 749.9,532.2 750.1,533.8 750.6,535.3 750.9,538.0 751.6,539.9 751.4,542.9 752.1,544.5 754.6,545.5 755.7,547.5 757.8,548.2 759.7,549.4 761.4,550.2 763.3,554.7 763.5,556.4 763.0,557.6 763.5,559.3 763.9,560.9 765.2,561.1 763.2,563.3 761.3,565.2 758.9,566.3 757.7,567.8 749.2,567.3 735.7,566.4 730.0,566.0 722.6,565.5 723.0,563.8 722.2,563.0 721.6,560.9 719.0,559.1 716.8,556.7 716.2,555.7 713.9,552.4 714.1,551.0 716.0,550.1 714.5,548.2 712.5,549.5 710.7,550.1 709.2,550.2 708.0,550.7 704.3,553.4 702.5,553.8 700.8,553.6 699.2,554.4 696.8,553.7 695.6,550.8 694.2,548.0 694.4,546.5 694.8,544.7 696.1,541.3 697.1,539.9 697.3,538.3 696.7,535.9 696.4,534.2 695.4,532.8 694.0,532.7 692.9,532.2 691.5,532.5 689.8,531.8 687.9,532.5 685.8,532.0 686.5,531.2 684.8,531.1 683.6,528.7 681.9,527.6 680.8,528.2 679.2,527.3 677.9,526.1 677.1,524.9 676.7,522.3 677.1,519.8 675.8,519.3 674.4,517.9 673.6,518.6 674.2,520.7 673.8,521.9 672.7,524.4 671.0,522.7 670.1,521.9 668.1,521.1 665.2,521.9 664.0,523.3 662.3,523.1 661.4,522.1 660.8,520.6 660.0,519.1 659.8,517.8 655.5,516.7 654.5,515.8 654.0,514.4 654.0,510.5 655.1,508.7 656.3,507.4 656.5,506.0 656.2,500.9 655.8,498.9 657.9,497.7 662.6,497.9 662.6,495.3 659.8,493.7 658.4,493.0 656.2,492.6 654.0,491.9 652.2,490.7 652.5,489.0 652.0,487.0 650.8,484.6 651.8,483.3 653.0,480.0 653.8,478.9 654.2,477.6 653.8,476.4 655.0,473.0 656.1,469.9 658.0,467.0 658.8,466.1 655.7,464.3 653.3,463.7 652.1,463.3 651.1,462.7 650.0,462.3 649.0,463.2 648.1,464.8 646.3,467.0 644.8,467.2 643.7,464.9 641.2,465.2 640.4,464.5 639.8,461.5 639.6,457.9 639.7,456.4 641.2,455.4 642.7,456.5 644.0,455.1 644.9,454.1 644.4,452.0 641.7,450.5 640.7,449.4 640.9,447.3 639.9,446.5 639.9,444.4 640.2,443.2 637.7,443.6 636.2,443.1 635.9,444.4 634.8,445.6 633.5,447.6 633.1,448.6 632.7,450.8 630.9,449.6 629.9,450.1 628.2,452.1 627.2,453.0 625.3,453.9 623.0,456.8 621.9,457.5 619.9,458.2 618.3,460.2 616.6,459.1 615.1,455.8 615.4,453.2 616.2,451.5 616.4,449.8 616.6,446.9 617.4,446.2 617.8,445.1 620.7,442.4 622.9,444.1 624.7,443.8 624.3,441.7 625.1,438.9 625.8,437.7 627.3,436.2 626.9,434.9 625.0,432.8 624.3,431.5 622.7,430.8 621.3,431.6 619.1,431.8 617.6,430.9 615.3,428.8 615.7,426.4 615.3,424.5 614.1,422.5 614.1,420.0 612.5,419.8 611.7,417.9 611.4,415.6 613.2,414.5 614.4,413.7 615.5,412.6 616.9,411.7 614.8,409.8 614.1,408.9 613.8,407.0 613.6,405.6 615.7,405.7 616.5,404.5 616.1,401.3 617.4,400.4 619.9,400.6 620.3,399.2 619.6,398.4 619.0,395.9 618.2,395.0 617.3,394.5 612.8,393.3 609.9,393.3 608.9,391.8 610.1,391.4 611.1,390.5 612.4,390.6 616.2,390.2 617.5,390.5 619.1,391.8 621.6,391.2 621.8,389.5 623.2,389.5 624.9,389.1 625.8,390.7 627.2,391.2 629.2,392.7 630.8,392.9 632.3,394.3 632.8,395.7 634.7,397.7 637.1,396.0Z M642.6,410.0 644.2,412.3 647.2,415.1 649.9,417.6 650.9,418.2 651.3,419.4 651.4,420.7 650.7,423.0 649.9,424.8 648.8,426.8 648.6,428.3 648.0,426.9 648.7,424.2 649.2,423.1 649.9,421.9 649.7,420.2 649.0,419.3 647.6,418.1 646.3,416.5 644.8,414.5 644.3,413.5 642.5,411.7 641.9,410.3Z"/><path class="s" d="M612.8,489.7 612.1,489.0 610.3,487.8 611.9,486.2 614.2,485.4 616.2,484.8 617.4,485.1 620.0,484.7 621.7,483.2 622.8,481.3 625.7,481.9 627.0,482.5 629.0,482.1 630.9,479.8 632.3,481.2 634.4,482.9 635.4,484.0 637.4,485.6 637.0,487.5 638.3,488.0 639.4,487.4 640.9,487.8 641.8,489.2 642.7,490.9 643.6,491.7 644.7,491.9 644.4,493.4 643.4,494.1 641.5,494.2 640.1,494.8 639.0,494.4 638.2,495.2 637.3,497.3 635.8,498.4 633.0,497.2 630.8,498.8 628.6,500.7 625.5,499.5 624.1,499.1 622.5,498.0 621.1,496.3 620.4,494.6 618.8,492.8 617.8,492.2 616.5,491.2 615.1,489.8 613.6,489.4Z"/><path class="s" d="M639.5,327.7 639.2,333.2 639.0,331.0 639.2,329.0 639.5,327.7Z M647.8,295.2 646.6,299.3 644.9,304.0 644.5,302.3 644.8,301.2 645.7,299.3 646.6,298.0 647.3,296.0Z M637.1,396.0 635.4,397.5 632.8,395.7 632.3,394.3 630.8,392.9 629.2,392.7 627.2,391.2 625.8,390.7 624.9,389.1 623.6,389.2 621.8,389.5 621.6,391.2 619.1,391.8 617.5,390.5 616.2,390.2 612.4,390.6 611.1,390.5 610.1,391.4 608.9,391.8 605.1,392.2 604.0,391.7 602.8,390.7 601.9,391.7 599.0,391.8 596.6,391.3 594.4,391.6 593.3,390.6 591.7,388.0 591.0,386.1 590.6,384.8 589.6,383.4 587.9,382.0 585.8,381.3 584.8,379.7 583.3,380.0 582.9,381.3 580.6,381.2 579.4,380.9 575.4,380.6 573.2,379.7 570.2,378.9 568.9,377.7 568.4,373.1 568.4,370.9 568.8,368.6 568.2,367.2 566.9,366.2 566.7,363.7 565.6,362.3 566.2,361.4 565.5,359.7 566.5,358.9 568.4,359.1 570.3,359.3 570.5,357.1 570.0,354.9 570.5,352.4 572.3,350.2 572.7,347.5 573.9,346.3 574.9,345.6 575.9,345.2 579.1,346.0 582.1,344.7 582.5,342.8 585.7,343.2 585.3,341.6 584.8,340.3 583.7,339.9 582.8,338.2 581.9,336.3 581.4,334.9 580.6,333.8 579.6,332.9 579.1,331.4 579.4,329.0 580.0,326.7 580.3,325.0 579.2,321.1 576.5,320.8 576.7,318.5 578.7,317.0 579.5,316.2 581.5,315.6 583.0,314.6 583.7,313.3 584.6,312.0 586.2,312.3 588.2,310.2 589.6,309.6 590.0,308.3 591.0,310.0 592.3,309.5 592.9,307.5 594.0,306.7 595.6,304.5 594.1,302.4 594.4,300.8 595.9,300.3 596.8,299.5 597.7,297.9 599.1,299.4 602.5,299.7 603.1,298.7 603.4,297.2 604.7,295.8 605.7,295.4 608.7,295.0 610.0,294.7 611.3,293.3 613.9,291.5 615.4,290.7 616.1,289.0 617.7,287.9 618.0,286.5 615.1,285.4 613.8,284.4 614.3,283.4 613.5,281.5 613.8,279.0 614.3,278.0 613.6,276.2 613.7,274.0 614.0,272.1 613.0,270.9 612.8,269.1 608.8,269.0 606.5,269.2 604.2,270.8 602.1,270.4 600.6,267.5 599.8,266.8 597.7,266.8 595.8,266.3 594.3,264.9 595.4,264.5 594.5,262.9 594.7,261.3 593.0,262.1 590.7,260.0 589.0,259.0 586.8,255.9 586.2,254.0 585.8,251.7 583.8,250.5 582.5,250.0 581.9,248.4 580.0,248.3 579.1,247.3 579.4,245.2 579.3,243.4 579.9,241.9 579.3,240.9 577.7,240.1 576.3,240.4 575.8,238.9 576.2,237.4 576.8,236.0 577.7,235.0 578.8,234.3 578.2,232.2 578.3,230.5 576.9,229.1 576.6,227.4 576.9,225.1 575.3,223.4 576.7,221.7 576.4,220.5 573.9,220.7 571.7,220.4 571.4,218.6 571.8,216.8 573.2,216.7 574.3,216.0 575.8,215.4 576.8,213.8 579.4,213.7 580.4,214.8 581.6,214.3 582.4,215.6 584.2,217.0 583.7,219.0 585.2,219.7 584.7,221.4 584.2,224.7 583.5,225.5 584.8,225.7 585.0,227.2 586.3,227.6 586.8,229.9 586.7,231.6 586.7,232.9 586.1,233.7 586.3,235.2 588.3,236.8 588.5,238.2 589.8,238.6 590.3,240.4 591.9,242.2 592.5,243.2 593.5,245.4 594.1,248.3 594.5,249.8 594.7,251.4 596.2,252.1 597.1,253.5 596.5,255.0 597.7,256.2 598.7,255.7 599.7,256.4 601.4,256.3 602.3,256.9 605.0,257.4 606.5,258.3 608.1,258.6 608.6,259.8 609.9,261.1 612.9,261.0 613.5,262.1 615.2,262.0 617.1,262.1 618.3,263.6 620.0,264.5 621.4,266.1 623.2,267.2 624.6,267.8 626.2,267.9 628.3,267.3 629.6,268.2 631.2,267.4 634.3,267.4 635.8,268.0 637.0,268.4 639.6,268.5 640.9,268.9 642.3,269.8 642.9,271.0 644.6,271.7 645.4,273.4 647.1,273.7 648.3,275.0 650.2,274.6 650.0,272.6 650.9,271.9 652.9,271.8 653.8,271.3 655.0,270.9 656.6,270.8 657.1,273.4 656.7,277.2 656.2,279.7 655.5,281.8 653.8,285.0 652.7,286.9 650.6,291.0 648.9,294.3 647.6,295.0 649.8,291.2 648.9,290.5 648.6,289.3 647.8,288.4 645.9,288.2 645.1,287.3 643.9,288.6 645.6,289.8 644.8,290.8 644.4,291.8 645.2,293.5 643.9,292.2 642.9,292.9 642.4,290.8 640.3,291.1 639.2,292.1 639.8,293.1 638.8,294.3 640.0,295.6 640.9,297.4 639.9,298.7 640.0,300.3 639.3,301.4 638.4,303.9 639.8,304.4 640.3,305.3 639.5,307.0 639.2,308.2 638.6,309.1 639.5,310.5 639.4,312.1 638.8,314.1 639.7,315.3 639.2,317.3 638.7,320.5 637.7,319.9 637.9,318.1 636.7,318.5 635.0,319.4 635.2,321.3 636.3,324.0 637.2,324.9 637.4,322.9 638.3,322.1 638.4,325.0 638.4,327.9 638.1,329.4 638.1,331.2 637.8,333.9 636.7,333.6 637.7,334.8 637.7,338.5 638.0,341.9 637.7,343.5 638.8,344.1 638.0,346.4 638.6,348.5 638.7,346.0 638.9,344.8 638.7,347.9 637.9,357.0 637.9,362.6 638.1,368.1 638.1,370.5 637.9,375.0 637.2,376.9 636.8,378.2 635.3,380.0 635.0,381.3 634.1,382.7 633.9,384.2 635.1,385.1 635.2,388.6 634.7,389.8 635.4,392.3 636.6,394.3 637.3,395.5Z"/><path class="s" d="M801.0,517.3 802.4,522.1 803.2,523.2 804.9,524.5 807.0,526.0 808.2,525.5 809.6,527.3 809.2,529.3 809.9,530.2 811.1,533.1 812.5,535.3 814.3,536.8 815.5,538.1 817.0,538.9 818.0,540.8 819.7,541.6 821.5,541.4 823.2,542.0 824.2,542.9 825.8,542.1 827.9,541.9 828.1,539.3 828.2,537.0 831.6,536.8 833.6,537.4 835.6,537.9 836.8,538.6 838.1,539.8 839.4,540.6 841.0,541.8 843.5,542.2 846.7,543.3 846.7,545.4 846.7,551.3 846.5,558.8 846.5,564.2 833.5,564.4 834.1,563.1 833.7,560.4 832.1,559.9 829.7,558.0 827.1,557.7 826.6,556.6 827.2,555.3 827.5,553.9 826.6,552.3 825.9,549.6 825.0,548.8 822.7,548.0 822.9,546.7 822.7,545.4 822.1,544.3 821.4,543.6 819.9,544.0 818.4,543.7 817.0,543.9 815.4,542.7 814.8,544.6 812.1,545.1 810.4,544.4 809.3,545.4 809.7,546.8 809.3,548.7 806.5,549.5 805.3,550.2 804.6,551.3 802.0,553.5 799.9,555.2 797.4,556.8 794.5,559.7 792.9,560.7 791.1,560.4 790.3,559.3 789.8,558.0 789.3,556.6 788.1,555.7 785.6,555.8 786.0,553.4 785.3,552.2 784.1,551.5 783.4,550.6 783.0,549.4 783.8,547.8 784.9,545.9 785.3,544.4 783.2,543.9 780.9,543.4 779.9,541.8 778.3,541.1 776.6,540.1 775.9,540.9 773.9,541.2 773.8,543.7 773.3,545.0 773.4,548.0 772.9,550.4 772.2,551.9 770.7,552.9 770.2,554.0 769.0,555.3 769.0,557.4 766.4,561.0 763.9,560.9 763.5,559.3 763.0,557.6 763.5,556.4 763.3,554.7 761.9,550.8 759.7,549.4 758.3,548.9 756.3,548.1 755.2,546.1 752.9,545.0 751.5,543.7 751.6,541.1 750.9,538.0 750.9,536.2 750.7,534.3 750.5,532.8 752.1,531.3 753.8,530.7 757.6,529.4 757.8,531.0 759.2,530.9 761.1,530.4 761.4,528.6 763.6,527.9 764.8,528.5 766.4,528.2 767.1,527.4 767.0,525.9 768.9,525.3 771.0,524.9 772.2,525.1 775.2,524.4 779.0,524.3 780.1,524.8 779.2,525.6 780.3,526.7 782.2,526.5 780.4,524.9 781.7,524.3 783.0,524.6 785.3,524.6 788.0,524.2 789.8,523.5 791.7,522.1 793.0,520.7 793.9,519.0 795.2,518.6 797.4,518.3 801.0,517.3Z M766.4,526.1 764.9,526.9 763.5,527.4 761.4,528.0 760.3,528.6 758.6,528.9 766.1,526.2Z"/><path class="s" d="M191.3,160.6 191.9,162.5 191.5,163.8 192.7,165.2 193.3,166.7 194.0,167.9 193.5,168.8 193.4,170.4 192.6,172.8 191.5,175.1 190.5,177.0 189.0,176.6 187.5,175.3 185.8,175.2 182.1,172.7 184.2,171.3 184.9,170.2 184.4,168.0 184.4,166.4 185.0,164.1 185.3,162.9 186.0,161.8 187.7,162.1 188.9,161.1 191.3,160.6Z M243.0,223.6 243.8,224.6 245.2,225.7 243.5,225.6 243.0,223.6Z M286.9,258.9 285.7,258.7 286.9,258.9Z M299.3,89.9 300.6,91.1 299.4,92.6 300.1,94.8 301.6,96.9 302.1,98.1 302.4,99.9 301.8,101.4 302.0,102.9 299.9,103.6 300.6,105.2 301.8,106.2 303.2,107.4 303.1,109.2 304.4,110.8 303.8,113.2 305.0,115.2 305.2,117.2 306.1,119.1 306.7,121.2 307.6,124.4 307.2,126.5 306.2,127.1 308.2,129.8 307.5,132.2 306.4,135.0 306.3,138.2 305.9,139.9 306.3,141.1 307.7,141.6 307.8,143.2 308.1,144.4 308.1,146.2 308.7,149.5 308.8,151.7 307.7,153.7 307.7,158.4 307.8,161.5 306.1,162.5 305.6,164.1 305.7,166.0 304.1,167.1 303.9,168.7 304.5,170.0 303.7,171.2 304.0,174.9 302.5,178.3 302.3,179.6 303.3,181.9 302.7,184.7 303.4,186.3 304.7,187.5 307.5,188.5 306.7,189.9 304.4,191.5 303.0,191.6 301.3,192.9 298.5,191.3 295.7,192.2 292.6,192.8 291.4,194.4 293.5,196.4 293.0,198.1 292.8,199.7 293.8,200.9 295.5,201.4 296.7,203.5 298.1,205.0 298.5,207.0 297.8,209.0 298.3,210.7 299.7,211.2 301.8,212.7 302.6,215.2 303.7,217.0 305.7,221.8 305.8,223.9 305.0,226.4 304.3,227.7 304.3,229.2 304.9,231.1 304.0,232.3 304.8,233.5 306.8,234.3 308.3,235.1 309.7,234.8 310.8,234.4 312.9,234.8 312.5,237.0 311.3,238.8 310.0,240.1 308.7,241.7 309.1,244.0 306.8,245.3 304.8,249.5 303.0,250.1 299.2,251.2 298.6,252.3 298.8,253.8 298.5,255.3 296.1,256.0 294.5,257.4 291.6,258.8 290.5,258.1 289.8,257.2 288.8,256.7 287.8,255.5 287.2,256.9 286.4,257.6 284.9,255.5 284.2,253.0 283.4,251.3 282.2,250.1 281.3,249.4 280.6,248.2 279.0,247.0 278.6,245.4 277.4,244.6 276.1,244.0 275.2,245.3 272.4,246.1 271.3,246.8 268.7,245.7 267.3,244.5 266.1,242.9 265.6,241.0 264.6,237.6 264.1,236.1 264.0,233.6 261.9,232.0 259.7,233.1 258.4,232.3 253.9,231.2 252.3,230.8 248.5,227.1 246.8,226.3 246.7,224.9 246.8,223.3 245.4,223.3 244.5,222.7 243.4,220.2 243.4,217.7 242.9,216.3 242.2,214.9 242.9,213.9 244.0,212.8 243.0,211.7 242.7,209.8 243.1,208.5 243.6,207.6 245.0,207.2 243.8,206.2 242.1,206.2 240.6,205.9 238.8,205.2 236.6,204.8 236.2,203.8 235.0,204.7 234.6,207.2 233.1,206.7 231.9,205.5 231.6,203.8 230.0,203.5 228.4,204.4 227.7,203.5 226.6,202.7 225.3,202.3 224.3,200.8 223.1,200.4 222.2,199.4 220.7,196.9 218.2,193.0 216.8,191.7 216.7,190.0 215.6,189.1 213.1,188.3 210.9,187.2 208.9,186.7 208.7,185.4 208.1,184.6 207.3,182.3 206.2,181.1 204.5,179.9 202.3,177.9 201.7,176.4 203.1,175.7 203.7,177.1 204.5,175.6 203.0,175.4 200.5,173.6 199.1,173.3 198.5,171.9 197.3,171.0 196.2,169.8 194.7,169.5 195.3,168.6 194.8,167.6 194.8,166.1 194.9,164.7 193.8,162.5 193.6,160.3 192.8,158.1 192.0,157.4 190.4,157.4 189.4,157.9 187.7,157.2 187.1,155.6 188.3,153.3 188.0,151.6 186.8,151.0 186.6,149.6 185.3,148.6 183.9,146.6 183.3,145.3 182.1,144.5 181.3,142.2 179.9,140.4 179.5,138.5 177.0,137.6 177.4,134.8 176.7,133.0 176.8,129.0 176.2,127.3 175.4,126.3 174.2,125.7 173.9,122.6 172.4,119.3 170.2,117.2 168.7,115.2 167.9,114.2 166.7,112.1 166.0,109.4 165.3,107.4 166.2,104.8 166.4,102.5 166.6,101.3 167.5,100.2 167.6,98.9 166.9,96.5 166.3,94.9 162.9,93.3 161.4,92.3 158.1,92.1 152.5,91.1 151.7,90.3 150.1,90.1 150.3,88.4 149.6,86.6 149.0,84.5 147.6,83.4 144.6,82.2 143.1,81.4 142.1,80.6 140.9,80.8 140.0,80.2 139.2,81.0 139.7,82.2 138.8,83.3 137.8,84.4 133.9,84.5 132.4,84.0 131.5,83.3 130.1,82.8 128.4,81.5 125.4,79.4 124.2,78.5 122.3,77.6 121.4,76.4 120.3,75.6 119.0,75.4 117.7,75.5 116.1,74.8 115.5,73.9 113.9,73.5 112.4,72.3 110.8,71.2 109.8,70.9 108.4,69.9 106.9,69.1 107.6,67.9 107.3,66.8 107.8,64.8 107.5,62.5 108.2,60.3 107.6,59.2 106.5,58.1 108.3,56.1 108.8,53.7 109.4,52.5 110.3,50.8 111.8,50.8 113.4,50.7 127.8,55.5 139.7,59.5 171.0,70.1 181.4,73.6 193.1,77.6 211.7,84.1 228.5,90.0 237.2,89.9 247.4,89.9 269.0,89.9 290.8,89.9 299.3,89.9Z M118.9,75.6 119.8,76.5 118.0,76.0Z M114.3,73.5 115.5,74.0 116.4,75.7 118.0,76.8 118.7,78.1 116.5,78.2 115.2,77.6 114.1,76.5 113.6,75.4 113.8,73.7Z"/><path class="s" d="M312.2,296.3 313.8,297.7 314.6,298.5 312.6,297.5 312.2,296.3Z M318.8,301.6 319.5,302.7 321.2,303.4 321.9,305.9 321.8,308.5 321.0,309.2 320.1,306.6 318.8,305.2 319.0,303.3 318.6,301.9Z M312.9,299.1 314.6,300.2 315.8,301.7 317.5,304.2 319.0,305.8 319.9,307.2 320.0,308.9 319.2,308.2 316.2,302.8 315.2,301.6 312.7,299.6Z M285.7,258.7 286.9,258.9 287.3,260.5 288.2,261.7 289.6,260.5 288.4,260.0 287.3,257.8 287.1,255.0 287.7,257.0 289.8,257.2 290.5,258.1 290.9,259.5 294.5,257.4 296.1,256.0 298.5,255.3 298.8,253.8 298.6,252.3 299.2,251.2 302.2,250.6 304.2,250.0 306.8,245.3 309.1,244.7 308.6,242.8 310.0,240.1 311.3,238.8 312.5,237.0 313.0,235.9 315.3,234.8 317.0,234.5 318.9,234.6 320.0,235.7 319.7,237.2 319.9,238.5 322.2,238.5 322.7,240.0 323.5,241.3 323.0,244.1 323.6,245.1 323.0,247.5 323.4,248.8 324.7,249.4 325.3,250.9 325.2,252.2 327.9,256.0 329.0,258.3 329.5,259.5 330.0,262.2 330.5,264.0 335.2,265.3 336.4,265.5 339.1,265.7 341.5,266.2 344.1,270.4 345.6,272.5 346.0,275.3 346.3,276.4 348.9,279.8 349.9,280.4 348.6,282.3 347.0,284.0 346.5,285.0 347.9,286.6 347.2,287.9 346.3,290.5 346.5,293.1 346.2,296.8 345.6,299.2 346.8,300.0 347.4,302.2 349.8,305.9 349.4,307.7 350.5,308.7 351.5,308.3 354.3,308.6 355.4,311.8 357.0,312.2 358.4,316.3 358.5,317.7 360.2,317.7 360.9,320.5 361.2,322.8 362.4,324.5 362.8,326.3 364.1,326.7 365.0,327.3 365.8,326.6 367.5,326.4 369.4,325.0 370.0,324.2 371.7,322.5 374.8,323.3 376.7,323.9 378.5,325.1 379.6,326.8 380.9,327.2 381.1,328.5 381.8,329.8 382.9,330.6 383.3,334.0 384.6,335.1 384.3,336.3 385.2,339.5 386.1,340.8 386.4,343.0 386.9,344.4 388.2,345.9 389.3,348.4 391.1,349.9 391.6,352.1 392.0,353.9 392.6,355.2 393.3,357.6 392.9,358.7 393.3,359.9 393.8,360.9 394.9,361.7 395.6,363.5 395.5,365.3 396.3,366.9 397.9,367.2 399.8,366.4 403.2,369.2 402.1,369.9 401.6,371.9 401.7,373.4 400.3,375.3 399.4,376.8 399.0,378.1 399.5,379.7 400.8,380.9 401.3,382.1 401.9,383.5 402.1,386.0 401.4,387.2 399.9,386.6 397.4,386.4 394.9,384.9 395.1,383.6 394.6,382.6 393.5,381.5 394.5,380.4 393.7,379.7 393.0,380.5 393.3,381.8 393.6,382.9 394.2,384.6 393.6,385.6 394.3,387.7 392.3,385.8 391.0,383.8 389.2,381.2 387.6,379.4 385.6,377.6 383.4,376.2 381.1,373.2 378.2,369.8 374.4,366.2 372.5,364.5 371.4,364.0 370.6,362.5 370.0,361.0 368.4,357.5 367.3,356.3 365.2,354.4 363.6,352.5 362.8,351.1 361.1,350.0 360.3,349.1 359.5,346.6 358.6,345.7 357.5,343.9 357.2,342.4 354.1,339.2 351.3,336.6 348.0,333.7 348.9,333.2 348.4,332.1 347.5,332.9 346.2,331.6 343.7,330.0 342.8,329.2 341.1,328.7 339.2,327.1 334.9,323.9 332.1,322.0 329.1,320.3 330.9,320.7 332.2,321.5 333.5,322.6 334.6,323.5 336.5,324.7 338.1,325.9 338.2,324.2 338.7,322.0 337.9,320.5 336.4,319.3 335.2,320.0 335.5,321.2 334.1,321.5 333.1,320.4 330.7,320.2 329.7,318.0 328.5,317.2 325.9,316.1 323.6,315.4 322.6,314.1 322.7,312.7 322.0,311.6 321.0,310.7 322.2,311.2 323.2,311.8 324.1,310.4 322.9,307.9 322.5,306.3 323.2,305.5 322.8,303.9 321.7,301.4 321.0,300.5 320.0,299.7 318.0,299.7 316.2,297.9 315.3,296.6 314.1,296.4 313.4,295.2 311.9,294.5 311.2,295.5 311.1,297.1 309.6,295.1 308.9,294.4 306.3,293.0 303.8,292.0 302.2,291.1 302.9,290.3 301.8,289.7 300.8,290.2 299.3,288.4 298.9,287.3 299.7,285.7 298.6,285.0 297.3,284.3 295.2,284.4 295.2,286.0 294.3,288.0 293.1,286.2 291.4,286.7 291.0,287.7 289.7,286.5 288.7,285.1 290.2,284.9 291.3,283.6 291.9,284.4 293.0,283.9 293.3,282.7 294.7,282.3 294.2,280.7 292.9,280.6 291.6,281.4 291.1,283.2 289.7,283.2 288.4,283.7 287.2,282.2 286.0,280.8 285.1,280.3 285.3,281.7 283.2,281.6 282.2,280.8 283.4,281.2 283.5,278.8 282.2,277.9 280.9,277.1 280.0,277.6 279.1,276.6 279.6,273.3 279.2,271.9 278.9,269.7 279.9,267.4 281.4,265.2 282.5,263.2 283.2,261.7 283.4,260.3 284.7,259.0 283.7,260.6 283.0,263.9 285.5,260.7 285.7,258.7Z"/><path class="s" d="M565.6,362.3 566.5,363.1 566.9,366.2 568.2,367.2 568.8,368.6 568.4,370.9 568.4,373.1 568.6,376.9 570.2,378.9 573.2,379.7 575.4,380.6 578.3,381.0 580.6,381.2 582.1,381.8 582.8,380.0 584.0,379.3 585.8,381.3 587.9,382.0 589.6,383.4 590.6,384.8 591.0,386.1 591.7,388.0 593.3,390.6 594.4,391.6 596.6,391.3 599.0,391.8 601.9,391.7 602.8,390.7 604.0,391.7 605.1,392.2 607.7,391.6 609.2,393.0 612.8,393.3 617.3,394.5 618.2,395.0 619.0,395.9 619.6,398.4 620.3,399.2 620.5,400.3 618.4,400.2 616.1,401.3 616.5,404.5 615.7,405.7 613.6,405.6 613.8,407.0 614.1,408.9 614.8,409.8 616.6,411.1 615.9,412.0 614.8,412.7 613.1,413.6 611.6,414.5 611.7,417.9 612.5,419.8 614.1,420.0 614.1,422.5 614.3,424.2 612.2,424.2 610.8,425.7 610.3,426.5 609.1,428.9 608.6,430.3 607.3,429.5 605.8,431.6 602.9,430.3 602.6,429.0 601.5,427.3 598.7,428.2 597.6,427.9 596.6,426.0 595.4,424.7 592.6,421.8 591.7,420.3 590.8,419.4 589.2,419.6 587.9,423.0 585.8,422.8 584.8,423.2 582.7,423.1 580.9,422.1 580.2,419.7 578.3,418.4 576.8,419.0 575.9,419.6 574.8,421.6 572.7,422.4 570.7,422.4 569.9,421.3 567.2,422.2 565.8,420.5 565.1,419.5 564.2,418.8 562.5,417.7 560.3,416.3 558.3,415.5 556.5,415.1 555.5,414.6 554.2,415.6 553.4,417.9 553.6,419.3 551.7,420.1 548.4,420.1 546.6,419.3 545.0,418.3 542.8,416.6 540.0,414.1 538.9,413.6 536.1,412.7 533.8,412.4 531.8,411.7 530.4,411.4 528.8,410.5 527.3,410.1 525.2,410.1 523.8,409.2 524.3,408.0 525.2,406.4 526.2,404.2 526.9,402.2 527.4,400.1 527.1,398.5 525.8,396.1 526.1,394.1 527.9,390.7 529.7,386.1 530.0,384.9 527.6,380.8 524.9,381.8 521.3,385.4 520.0,387.2 516.4,388.4 514.6,388.6 513.0,387.4 512.1,385.9 510.9,383.4 509.6,382.6 506.8,382.2 505.4,380.6 504.2,379.7 502.5,378.9 500.3,377.4 499.1,376.2 498.8,374.3 499.0,372.7 499.6,370.7 500.4,369.0 500.6,367.7 499.3,364.0 500.0,362.5 499.2,360.9 500.3,358.8 501.5,358.9 503.9,359.7 506.4,359.4 507.5,359.0 508.2,357.2 509.2,355.9 512.0,354.8 515.6,353.0 516.4,352.2 517.5,350.6 519.2,347.6 520.7,345.8 524.8,344.4 526.5,343.9 527.9,342.0 528.2,340.9 528.8,339.7 529.3,338.3 528.1,336.8 528.6,335.7 528.6,333.6 529.1,332.6 529.9,331.8 532.2,331.2 533.8,330.1 535.0,327.9 535.2,326.1 536.1,325.4 538.0,325.5 539.2,324.9 540.1,322.8 541.5,321.6 542.0,319.4 543.0,318.8 544.4,321.2 546.4,321.4 548.1,322.1 547.5,324.0 548.3,324.7 546.8,326.7 549.0,329.3 549.2,331.5 550.4,332.9 552.2,335.4 553.3,338.2 553.4,339.9 553.3,342.2 553.1,343.6 554.2,345.4 554.2,348.1 553.9,349.7 553.1,351.5 553.0,353.5 553.6,355.0 553.5,356.5 553.9,357.7 553.9,360.1 554.6,362.2 556.1,364.0 558.0,364.9 559.2,363.3 560.8,361.4 562.2,361.7 565.6,362.3Z"/><path class="s" d="M977.6,451.8 976.7,454.1 976.3,455.1 974.9,457.0 971.3,461.3 969.6,462.7 968.6,460.4 968.7,457.9 971.5,453.2 974.3,453.6 976.2,453.1 977.6,451.8Z M965.6,418.2 964.4,419.6 962.9,420.4 961.1,420.4 959.8,419.7 962.5,419.8 964.6,418.9 965.6,418.2Z M903.2,541.2 902.9,538.0 903.8,537.1 905.9,534.3 906.6,532.7 906.3,526.7 905.7,524.9 906.2,523.7 905.4,522.2 906.0,520.4 904.6,517.9 904.4,516.3 905.4,509.7 905.1,506.5 906.9,505.0 907.1,502.7 907.0,499.9 907.3,497.7 906.8,496.2 904.7,493.2 903.1,491.3 901.0,489.2 898.3,487.5 896.6,485.9 895.5,484.6 894.9,483.6 896.1,481.0 896.5,479.1 896.9,477.4 900.1,477.2 902.3,476.5 903.0,475.4 905.0,474.8 906.0,474.1 909.0,474.1 910.4,473.5 911.6,472.5 912.2,471.6 913.7,472.3 914.2,471.2 916.5,469.1 918.6,467.8 921.7,467.0 923.7,465.7 926.0,464.7 927.0,461.7 928.8,461.1 930.0,463.3 930.5,461.3 930.6,459.2 931.9,456.9 933.4,456.2 934.8,457.5 936.7,456.9 938.5,457.1 941.0,455.7 942.3,454.7 943.1,453.8 945.3,452.3 946.2,451.3 948.0,450.5 949.4,448.8 949.7,446.8 950.7,445.4 950.8,443.8 951.3,442.3 952.7,439.7 952.0,436.0 951.2,434.4 951.3,433.1 951.7,432.0 951.8,430.5 952.9,429.4 952.9,422.6 954.3,421.8 954.9,422.7 958.3,423.0 961.5,423.5 963.4,423.3 964.3,422.5 965.8,422.2 966.0,419.7 966.6,418.2 968.9,419.3 969.6,420.4 970.7,420.8 972.1,423.9 973.1,426.5 973.5,428.5 973.9,429.6 974.7,427.5 975.6,426.6 974.7,424.5 975.7,426.6 975.0,428.0 975.4,430.1 975.2,431.8 976.9,433.9 976.0,436.4 975.1,437.1 974.0,441.3 973.2,443.1 972.2,444.4 970.3,446.6 969.0,448.1 968.6,449.1 967.6,450.0 966.2,451.8 963.8,453.9 961.4,455.7 960.7,456.6 959.7,458.5 958.1,461.9 956.3,464.1 955.1,466.8 954.5,469.2 954.5,471.6 955.3,474.0 955.0,475.4 954.7,476.6 953.9,478.3 952.6,478.2 951.4,478.9 950.2,481.2 949.4,482.3 947.9,482.6 946.5,483.9 946.2,485.3 947.5,486.2 948.4,487.5 949.2,488.5 949.8,487.4 952.3,486.4 953.0,487.3 953.7,485.7 955.8,485.5 956.5,486.5 956.0,488.1 955.6,489.7 954.1,490.8 953.1,492.1 952.7,491.1 949.6,493.0 948.9,495.1 948.9,496.7 948.4,498.8 949.7,498.5 950.5,497.8 951.8,495.9 952.7,495.1 953.6,494.7 955.4,495.1 954.2,496.7 953.0,497.7 952.6,500.3 952.3,502.6 950.6,505.9 949.8,507.9 949.4,510.3 948.9,511.3 948.7,513.2 947.3,515.2 946.9,516.8 946.3,521.3 945.8,522.5 945.7,525.1 945.0,526.3 944.5,527.4 943.6,529.2 943.3,532.4 942.4,531.7 941.6,530.9 942.2,529.2 942.1,527.4 941.3,526.2 940.6,524.6 938.1,523.7 936.4,522.8 937.0,521.4 937.5,520.0 937.9,518.4 938.3,516.8 938.4,514.3 937.9,512.5 937.0,511.7 937.3,510.5 936.0,511.1 934.5,513.4 933.6,514.8 933.1,516.0 932.1,517.7 931.5,518.6 930.5,520.8 929.5,522.6 927.6,522.8 926.4,522.4 925.1,523.0 923.7,522.6 922.5,523.7 922.1,525.1 921.5,526.5 920.1,529.0 919.6,531.6 918.2,533.4 917.9,534.6 917.2,535.7 916.8,537.1 915.6,537.7 914.4,539.9 913.4,541.0 912.4,541.6 912.5,543.7 911.4,542.3 910.3,541.8 909.5,540.6 907.0,539.2 904.8,539.7 903.8,540.4Z"/><path class="s" d="M598.7,428.2 597.9,430.3 597.6,431.4 596.4,432.5 593.5,433.4 592.1,433.8 590.6,432.9 590.0,433.7 588.5,434.7 588.9,436.1 588.3,437.0 587.9,438.1 587.3,440.9 586.3,442.4 584.9,442.9 584.0,445.1 583.4,446.2 584.2,448.0 583.2,449.6 581.4,450.8 579.6,451.2 577.8,451.7 576.7,452.5 574.7,453.1 574.0,456.7 573.8,458.7 573.7,460.7 572.1,462.5 572.0,464.2 570.1,463.6 570.5,465.2 570.9,466.9 568.5,469.9 566.6,469.9 565.3,470.3 561.3,466.5 561.1,464.6 560.0,463.1 559.3,462.3 558.1,461.8 557.2,459.7 555.9,458.8 554.7,457.9 553.4,455.5 553.4,452.1 552.6,449.9 551.4,449.0 551.6,444.8 552.1,443.2 552.9,441.4 555.4,441.0 557.2,440.9 558.6,441.1 560.4,440.2 561.8,440.2 563.8,440.7 564.6,439.0 565.9,439.4 566.7,437.4 566.6,435.5 567.7,434.0 568.5,432.2 569.3,431.3 571.2,430.6 572.5,432.2 573.3,432.8 574.7,432.6 575.4,431.3 577.1,430.4 578.0,428.6 578.1,427.1 575.0,426.4 575.3,425.3 576.4,424.0 576.6,421.4 575.2,420.0 577.1,419.6 578.3,418.4 579.7,419.1 580.9,422.1 581.7,422.9 584.8,423.2 585.8,422.8 587.1,422.6 589.2,419.6 590.8,419.4 591.7,420.3 592.6,421.8 594.6,424.1 596.6,426.0 597.6,427.9 598.7,428.2Z"/><path class="s" d="M672.3,524.7 671.4,525.8 670.8,527.3 669.0,530.2 667.5,530.4 666.1,530.9 664.4,532.1 661.7,534.4 659.1,533.6 657.1,533.2 655.5,533.6 654.6,534.2 652.3,536.9 651.1,539.4 650.1,540.5 649.1,539.6 648.6,537.5 647.3,535.4 646.9,533.8 645.9,532.4 644.3,531.2 645.8,529.5 645.7,527.7 643.1,527.5 641.2,528.4 640.6,529.6 639.8,531.7 638.7,534.0 639.3,534.9 640.2,535.7 642.2,537.1 640.1,539.7 637.7,539.5 636.4,538.5 635.6,537.6 634.4,537.9 633.3,538.2 630.8,538.4 629.0,538.2 627.1,538.7 626.1,539.5 624.5,540.4 623.1,542.2 621.1,541.2 619.1,538.7 617.2,538.8 616.1,539.9 613.8,540.0 613.7,538.6 611.6,537.4 608.5,536.3 609.5,535.1 608.8,533.9 606.5,534.3 605.0,532.5 604.1,531.4 602.5,530.6 601.3,529.7 600.8,527.5 603.8,525.4 605.0,523.8 606.4,523.0 607.4,521.3 611.4,524.6 612.1,523.7 611.7,521.9 611.0,517.2 610.5,514.9 611.3,512.1 612.0,509.3 612.9,506.7 613.9,504.5 613.8,498.9 613.5,497.3 612.7,495.3 612.6,492.9 613.2,492.1 612.8,490.3 613.6,489.4 615.1,489.8 616.5,491.2 617.8,492.2 618.8,492.8 620.4,494.6 621.1,496.3 622.5,498.0 624.1,499.1 625.5,499.5 627.5,500.9 630.8,498.8 632.3,497.3 634.8,498.5 637.3,497.3 638.2,495.2 639.0,494.4 640.1,494.8 641.5,494.2 643.4,494.1 644.4,493.4 644.7,491.9 643.6,491.7 642.7,490.9 642.3,489.4 640.9,487.8 639.4,487.4 638.3,488.0 637.0,487.5 637.6,485.9 635.4,484.0 634.4,482.9 632.3,481.2 631.5,479.9 629.0,482.1 627.0,482.5 625.7,481.9 624.8,477.4 624.8,475.9 625.7,473.5 626.7,472.0 627.2,468.9 627.5,467.7 627.7,465.9 627.2,464.2 626.1,463.3 624.5,463.7 623.7,461.9 625.7,460.9 628.1,459.6 629.3,457.8 631.3,456.3 632.8,454.6 632.6,451.8 633.1,448.6 633.5,447.6 634.7,446.6 635.9,444.4 636.2,443.1 637.7,443.6 639.5,443.1 639.9,444.4 638.7,446.4 640.9,447.3 640.5,448.3 641.7,450.5 644.4,452.0 645.0,453.4 644.0,455.1 643.2,456.6 641.2,455.4 639.7,456.4 639.6,457.9 639.8,461.5 640.4,464.5 641.2,465.2 643.1,464.8 644.8,467.2 646.3,467.0 648.1,464.8 649.0,463.2 650.0,462.3 651.1,462.7 652.1,463.3 653.3,463.7 655.7,464.3 658.7,465.5 658.0,467.0 656.1,469.9 655.0,473.0 654.1,475.4 654.2,477.6 653.8,478.9 653.0,480.0 651.8,483.3 650.8,484.6 652.0,487.0 652.5,488.4 651.8,490.1 654.0,491.9 656.2,492.6 658.4,493.0 659.8,493.7 662.0,494.6 662.8,497.0 657.9,497.7 656.0,497.8 656.2,500.9 656.5,506.0 656.3,507.4 655.1,508.7 654.0,510.5 654.0,514.4 654.5,515.8 655.5,516.7 658.7,517.8 660.2,518.2 660.8,520.6 661.4,522.1 662.3,523.1 663.5,523.5 665.2,521.9 666.9,520.9 670.1,521.9 671.0,522.7 672.3,524.3Z"/><path class="s" d="M757.7,567.8 757.3,569.0 757.3,571.6 756.4,572.9 755.8,576.3 755.4,577.4 754.5,578.6 752.0,580.5 751.4,581.9 749.1,589.0 750.2,592.6 750.5,593.9 749.9,595.8 750.1,599.1 748.7,599.9 747.7,600.3 746.4,599.6 744.8,599.2 743.5,598.6 743.1,597.3 741.0,597.1 740.2,598.5 741.6,600.6 743.4,601.0 745.9,601.1 748.9,602.2 749.8,603.4 750.7,604.0 748.3,603.6 744.7,602.1 741.1,600.9 739.0,600.4 736.7,600.0 732.2,599.5 733.5,598.2 734.6,597.7 735.5,596.9 736.0,595.4 734.8,594.7 733.1,594.3 731.5,595.5 731.0,596.5 729.5,597.3 728.7,596.6 730.1,595.4 728.7,594.2 728.1,592.8 727.3,592.0 725.3,592.6 724.5,593.7 724.2,595.0 722.1,595.5 721.4,596.5 720.5,597.7 720.0,598.8 721.8,599.0 725.6,598.7 727.8,598.8 725.8,599.5 720.9,600.4 718.6,600.2 717.5,600.9 715.9,601.2 714.6,601.8 714.4,603.1 712.8,603.5 711.9,604.3 711.7,605.9 710.0,606.6 708.8,607.4 707.8,607.8 705.4,607.8 704.4,608.5 702.7,609.5 701.1,609.7 699.7,610.0 698.7,610.5 696.0,611.6 693.4,612.4 692.2,613.0 690.1,614.1 688.3,614.9 687.0,616.2 684.9,617.2 681.9,617.2 679.4,616.9 677.1,618.1 675.7,617.9 673.1,617.2 670.8,616.1 669.5,615.8 665.9,615.4 664.0,614.1 662.6,613.5 661.0,613.1 660.1,612.4 658.3,611.0 657.3,610.1 655.1,609.2 653.1,608.7 651.1,608.4 648.6,608.6 646.3,608.0 644.5,607.9 642.5,607.4 640.8,607.9 637.8,607.4 635.5,606.0 632.9,603.9 630.8,602.5 627.2,600.4 625.0,599.5 624.1,598.7 622.0,598.1 618.4,597.6 616.6,597.1 613.7,595.8 615.3,594.4 616.9,593.4 619.4,591.2 619.8,589.8 620.7,587.7 622.7,586.4 625.0,584.0 625.2,582.2 626.4,581.3 627.9,581.0 629.0,579.9 630.1,576.1 629.7,574.1 627.7,573.1 627.5,569.8 627.0,568.3 624.1,567.3 623.7,564.0 624.8,562.9 624.5,561.5 624.1,557.0 623.4,555.0 621.1,550.7 620.7,549.2 620.9,547.3 622.0,544.1 623.1,542.2 624.5,540.4 626.1,539.5 627.1,538.7 629.0,538.2 630.8,538.4 633.3,538.2 634.4,537.9 635.6,537.6 636.4,538.5 637.7,539.5 639.2,540.0 642.2,537.6 640.2,535.7 639.3,534.9 638.7,534.0 639.8,531.7 640.6,529.6 641.2,528.4 643.1,527.5 645.1,527.3 646.0,528.9 644.2,530.7 645.9,532.4 646.9,533.8 647.3,535.4 648.6,537.5 649.1,539.6 650.1,540.5 651.1,539.4 652.3,536.9 654.6,534.2 655.5,533.6 657.1,533.2 659.1,533.6 661.7,534.4 664.4,532.1 666.1,530.9 667.5,530.4 669.0,530.2 670.1,528.0 671.4,525.8 672.3,524.7 673.8,521.9 674.2,520.7 673.6,519.7 674.4,517.9 675.8,519.3 677.1,519.8 676.3,521.4 677.1,524.5 677.9,526.1 679.2,527.3 680.3,528.1 681.9,527.6 683.6,528.7 684.8,531.1 686.5,531.2 685.8,532.0 686.8,532.8 689.1,531.7 691.5,532.5 692.9,532.2 694.0,532.7 695.4,532.8 696.4,534.2 696.7,535.9 697.3,538.3 697.1,539.9 696.1,541.3 694.8,544.7 693.9,545.5 694.2,548.0 695.6,550.8 696.3,553.0 699.2,554.4 700.8,553.6 702.5,553.8 704.3,553.4 708.0,550.7 709.2,550.2 710.7,550.1 712.5,549.5 714.0,548.1 716.2,549.2 714.1,551.0 713.9,552.4 716.2,555.7 716.8,556.7 719.0,559.1 721.6,560.9 722.2,561.7 723.0,563.8 722.4,565.4 730.0,566.0 735.7,566.4 749.2,567.3 757.7,567.8Z"/><path class="s" d="M577.6,213.4 575.8,215.4 574.3,216.0 573.2,216.7 571.8,216.8 571.1,217.7 571.0,219.9 573.9,220.7 576.4,220.5 576.7,221.7 575.4,222.9 576.8,224.5 576.6,227.4 576.9,229.1 578.3,230.5 578.2,232.2 578.8,233.1 577.7,235.0 576.8,236.0 576.2,237.4 575.8,238.9 575.9,240.2 577.7,240.1 579.3,240.9 579.9,241.9 579.3,243.4 579.4,245.2 579.1,246.4 580.0,248.3 581.1,247.9 582.5,250.0 583.8,250.5 585.3,250.9 586.2,254.0 586.8,255.9 589.0,259.0 590.8,258.8 592.2,262.0 593.9,261.2 594.9,262.0 595.3,264.0 594.3,264.9 595.3,265.5 597.7,266.8 599.8,266.8 600.6,267.5 602.1,270.4 603.2,271.0 606.5,269.2 607.8,269.4 612.0,268.5 613.0,270.9 614.0,272.1 613.7,274.0 613.6,276.2 614.3,278.0 613.8,279.0 613.7,280.6 614.3,283.4 613.8,284.4 615.1,285.4 617.5,286.2 617.7,287.9 616.1,289.0 615.4,290.7 613.9,291.5 612.2,293.2 610.0,294.7 608.7,295.0 605.7,295.4 604.7,295.8 603.4,297.2 603.1,298.7 602.5,299.7 599.7,299.6 598.3,297.9 596.8,299.5 595.9,300.3 594.4,300.8 594.1,302.4 594.8,304.1 595.1,306.5 592.9,307.5 592.3,309.5 591.0,310.0 590.5,308.2 589.6,309.6 588.2,310.2 586.8,312.1 585.0,311.8 583.7,313.3 583.0,314.6 581.5,315.6 579.5,316.2 578.7,317.0 577.0,317.9 576.2,320.4 578.7,320.7 580.3,323.9 580.0,326.7 579.4,329.0 579.1,331.4 579.6,332.9 580.6,333.8 581.4,334.9 581.9,336.3 582.8,338.2 583.1,339.3 584.8,340.3 585.3,341.6 585.7,343.2 583.0,342.7 582.5,344.0 579.9,345.9 575.9,345.2 574.9,345.6 573.9,346.3 572.7,347.5 572.3,350.2 570.5,352.4 570.0,353.6 570.5,357.1 570.3,359.3 568.4,359.1 567.3,358.7 565.5,359.7 566.2,361.4 565.6,362.3 562.2,361.7 560.8,361.4 559.2,363.3 558.6,364.6 556.1,364.0 555.0,362.9 553.9,360.1 553.9,357.7 553.5,356.5 553.6,355.0 553.0,353.5 553.1,351.5 553.9,349.7 554.2,348.1 554.4,346.5 553.1,343.6 553.3,342.2 553.4,339.9 553.3,338.2 552.2,335.4 550.4,332.9 549.2,331.5 549.3,329.8 547.1,327.7 548.3,324.7 547.5,324.0 548.1,322.4 546.4,321.4 545.1,321.7 543.0,318.8 544.1,316.1 544.9,314.3 544.1,312.8 543.9,311.1 542.4,309.6 542.6,307.7 543.2,306.1 545.4,306.1 545.3,303.9 544.5,299.4 545.5,297.8 546.6,295.5 548.7,294.8 549.6,293.4 551.7,293.6 552.6,295.0 555.4,296.1 557.5,296.6 559.9,296.6 560.5,295.0 561.4,293.9 560.9,292.7 559.8,292.3 559.2,291.3 557.3,291.2 554.8,290.6 555.4,289.3 553.9,288.1 551.4,287.0 550.4,285.9 549.8,282.8 549.3,281.3 546.7,281.2 545.6,280.4 544.3,280.3 543.2,278.1 542.9,275.1 543.5,272.6 544.1,271.5 542.6,270.7 541.7,269.8 539.9,266.1 536.3,263.0 533.9,260.2 530.4,256.7 531.3,254.9 533.6,252.7 534.2,251.4 534.9,249.4 536.0,248.3 537.1,248.0 540.3,248.0 542.9,246.1 547.4,246.0 547.9,244.8 548.8,243.3 550.1,242.4 551.2,239.7 550.9,237.7 550.6,235.7 550.7,233.5 549.1,232.6 548.1,231.7 546.9,232.6 546.5,235.4 542.3,233.0 542.0,231.4 542.0,228.9 543.3,226.6 544.2,225.4 545.7,224.1 547.2,224.6 548.4,223.9 549.7,223.5 552.5,223.6 553.4,222.4 553.1,220.3 555.5,216.2 556.0,214.6 556.2,213.4 557.6,212.6 559.9,212.6 562.1,212.3 563.7,212.8 566.0,212.9 568.0,213.4 571.2,211.9 573.7,210.8 575.0,209.9 575.3,211.0 577.6,213.4Z"/><path class="s" d="M394.3,385.1 394.7,386.5 394.8,388.6 395.2,390.1 395.9,395.7 396.4,398.0 395.4,397.5 395.0,394.5 394.5,392.3 393.9,390.4 392.5,387.3 393.8,388.6 394.6,387.3 393.8,385.6Z M363.9,412.0 364.4,413.2 363.4,412.5Z M377.5,426.8 376.7,428.3 376.1,427.4 377.5,426.8Z M364.5,414.6 366.2,414.8 367.7,415.5 368.1,416.8 369.1,417.8 368.1,419.3 366.1,418.5 365.1,417.7 364.5,416.0 364.5,414.6Z M435.0,390.8 435.1,392.7 435.2,394.3 435.8,395.5 436.6,396.0 436.0,399.2 435.6,401.0 435.3,402.8 435.5,405.3 435.9,406.6 437.9,405.9 439.4,407.4 440.8,407.5 441.4,410.2 441.9,412.7 442.6,413.5 445.1,413.7 447.7,414.0 448.7,415.3 449.1,417.4 450.3,419.7 451.3,420.3 452.0,421.2 452.3,423.1 451.8,426.1 451.8,428.4 451.3,429.5 448.5,431.1 446.4,431.4 445.2,432.7 444.1,433.2 441.8,433.2 439.5,433.3 438.6,438.1 438.2,440.3 437.7,442.6 437.3,444.2 435.7,445.3 436.2,447.2 437.0,448.1 437.9,449.8 438.3,451.9 436.9,449.9 435.0,448.0 433.2,446.2 431.9,445.5 431.0,444.6 428.6,441.7 427.1,441.5 424.8,440.7 423.3,438.9 421.5,438.0 420.0,438.3 418.3,439.6 416.0,441.3 413.2,440.8 412.1,441.1 411.1,441.7 410.0,443.2 409.1,445.0 407.1,447.6 406.3,448.4 405.8,447.3 404.8,446.2 403.1,447.1 402.1,446.6 400.7,446.4 399.4,445.8 400.4,445.0 401.1,443.6 401.5,442.3 402.6,441.5 403.0,440.4 404.5,439.4 405.6,437.9 407.0,437.3 407.9,436.5 408.4,435.3 408.1,434.0 408.4,432.9 408.7,431.4 408.3,427.7 407.9,426.5 408.7,424.3 409.6,423.1 409.3,421.5 408.4,420.5 407.3,420.8 405.4,419.4 402.9,418.0 401.6,416.9 399.8,412.4 397.9,408.8 396.1,406.0 395.4,403.9 395.5,400.4 395.5,398.6 396.5,398.2 397.0,399.7 398.1,400.8 399.6,401.3 400.6,402.0 401.0,400.1 399.0,398.6 397.8,397.1 396.5,397.2 396.0,395.1 395.8,390.8 395.6,389.0 395.2,387.7 394.7,386.2 394.9,384.9 397.4,386.4 399.9,386.6 401.4,387.2 402.1,386.0 401.9,384.5 401.4,383.0 400.8,380.9 399.5,379.7 399.0,378.1 399.4,376.8 400.3,375.3 401.4,374.2 401.6,371.9 402.1,369.9 403.2,369.2 404.5,370.8 405.2,372.0 407.9,372.0 409.0,370.4 410.5,371.6 411.6,372.6 413.2,373.4 415.4,373.4 416.3,374.6 416.5,376.6 418.6,377.1 418.7,378.6 418.0,379.7 415.9,380.8 414.3,382.2 413.9,383.6 415.7,387.7 416.5,388.7 418.3,387.7 420.0,384.5 421.3,386.2 423.8,387.2 426.9,390.2 427.5,392.0 428.9,393.0 430.3,394.2 431.1,392.9 433.6,391.6 435.0,390.8Z M371.1,421.3 373.0,421.8 372.7,424.0 370.4,423.0 369.4,422.2 370.5,421.4Z"/><path class="s" d="M604.1,503.1 605.4,504.2 605.9,505.5 608.0,506.7 609.6,507.4 610.8,506.7 612.2,505.2 613.9,504.5 612.9,506.7 612.0,509.3 611.3,512.1 610.6,513.6 611.0,517.2 611.7,521.9 612.1,523.7 611.4,524.6 608.0,521.2 606.4,523.0 605.0,523.8 603.8,525.4 601.2,527.1 598.0,524.5 593.9,524.0 591.2,523.6 589.7,521.4 588.8,520.2 587.4,519.6 586.1,519.9 586.3,518.0 585.7,516.9 586.0,515.6 587.9,513.3 588.5,511.4 589.4,510.4 590.4,508.6 591.3,506.5 593.3,503.4 595.0,503.0 596.4,504.5 598.2,503.2 600.1,504.0 603.0,503.1Z"/><path class="s" d="M558.1,461.8 559.3,462.3 560.0,463.1 561.1,464.6 561.3,466.5 564.6,469.7 565.1,472.8 566.3,474.5 565.2,476.5 564.4,480.0 562.2,481.3 560.8,481.1 561.6,483.7 562.1,485.1 562.9,489.6 562.4,491.7 561.1,492.6 560.1,494.9 560.5,496.1 559.1,499.2 558.0,500.3 557.3,501.5 557.0,503.0 555.6,504.2 553.6,505.2 552.6,507.7 551.1,509.1 549.8,510.4 548.1,512.8 547.4,510.8 545.5,511.8 544.9,513.2 545.9,516.4 546.4,518.6 546.8,522.6 548.4,525.2 550.2,527.2 549.3,528.8 548.0,527.5 545.3,526.5 544.8,525.5 543.0,525.2 542.2,524.5 540.5,525.9 539.6,524.7 538.7,523.7 538.2,522.5 536.8,522.2 535.7,522.5 533.3,521.9 531.8,521.2 529.6,521.2 527.7,521.8 525.7,522.3 523.6,523.0 520.2,521.8 519.0,519.5 517.3,519.3 516.1,520.0 515.1,519.3 513.7,520.9 512.9,520.1 511.0,521.1 510.6,522.6 511.4,524.1 510.7,525.6 511.5,527.4 511.6,528.9 511.2,530.1 509.3,531.4 507.5,532.2 504.5,532.6 503.2,532.9 502.3,533.7 502.0,537.5 502.3,539.5 503.1,540.4 502.5,541.6 499.9,541.0 498.2,540.2 496.0,539.6 493.2,538.7 488.4,537.5 486.4,537.4 485.5,536.9 483.5,536.4 477.2,533.3 475.1,532.7 473.4,532.7 470.6,531.5 469.2,531.3 467.8,530.8 466.4,530.1 464.2,529.2 461.8,528.1 461.1,527.4 460.6,526.3 460.3,524.7 458.9,522.1 457.3,520.4 455.4,519.2 455.8,518.1 455.3,517.1 453.9,515.7 454.8,513.5 456.8,512.5 457.2,510.7 457.5,509.4 458.7,509.8 460.2,508.6 461.8,506.9 462.9,506.4 464.4,506.8 468.4,504.6 469.8,506.0 470.6,507.0 473.0,504.6 474.2,503.6 475.7,503.1 476.6,502.0 478.7,500.1 480.6,498.5 482.3,497.6 484.8,498.4 485.7,496.2 488.3,493.2 489.1,492.2 489.0,490.2 488.3,489.3 485.7,489.2 484.1,489.4 484.6,487.8 484.9,486.1 484.5,484.7 482.5,480.7 483.7,479.8 484.1,478.7 484.0,477.5 483.3,475.9 482.5,475.1 480.4,474.6 478.6,473.9 476.8,474.0 475.8,473.6 474.6,474.2 474.0,473.1 475.1,471.2 475.0,469.6 475.1,468.2 476.7,468.1 477.1,466.7 480.1,467.2 481.4,468.9 482.2,467.8 484.9,466.9 486.1,466.6 486.2,465.1 487.4,464.7 488.6,463.3 489.9,463.4 490.9,462.7 491.5,461.9 492.5,461.3 493.8,460.9 495.8,461.1 497.5,460.5 499.6,460.7 501.7,459.8 503.9,459.3 505.7,459.4 507.1,460.1 508.5,460.7 508.5,463.3 508.9,464.8 510.4,465.5 511.9,464.6 513.6,464.9 515.2,464.9 516.3,465.3 517.4,464.1 518.8,461.8 521.4,460.9 522.9,461.1 525.2,462.0 526.7,463.8 526.1,464.7 524.8,464.0 525.0,465.6 525.3,467.3 525.4,470.3 527.8,471.2 531.3,472.2 532.8,471.5 532.6,470.2 533.8,469.7 534.9,470.3 537.6,469.6 538.3,473.3 542.2,473.4 543.8,474.2 548.5,474.4 549.7,473.2 552.1,472.5 552.3,474.1 553.7,472.7 554.6,471.7 557.1,471.4 558.5,469.9 557.8,468.2 558.4,466.4 558.3,464.7 557.6,463.2 558.1,461.8Z"/><path class="s" d="M610.0,487.0 611.2,489.3 612.8,489.7 613.2,492.1 612.6,492.9 612.5,494.3 613.5,497.3 613.8,498.9 613.9,504.5 612.2,505.2 610.8,506.7 609.6,507.4 608.0,506.7 606.5,506.2 605.4,504.2 604.1,503.1 604.4,501.1 604.1,497.9 602.9,497.3 602.8,495.8 600.6,494.2 599.6,491.6 598.7,490.0 597.7,489.1 597.7,487.8 596.1,488.7 594.6,490.5 593.9,493.0 593.0,493.9 590.7,495.6 590.0,496.5 590.9,499.1 592.7,502.6 591.9,505.8 590.4,508.6 589.4,510.4 588.5,511.4 587.9,513.3 586.0,515.6 585.7,516.9 583.7,517.4 582.7,516.8 581.3,516.5 580.1,515.1 579.1,515.6 579.7,516.8 577.4,517.8 576.9,519.8 575.8,519.5 574.8,520.0 570.1,521.0 569.1,520.5 567.9,521.1 568.3,523.7 567.1,524.1 565.5,524.3 563.4,526.3 562.8,527.2 561.4,527.2 560.1,526.4 559.4,525.2 559.2,523.8 557.3,523.4 556.0,523.8 554.9,522.9 556.9,520.6 557.1,518.1 554.9,517.2 554.5,515.1 554.6,513.6 555.0,512.1 555.4,509.7 556.7,507.2 556.2,505.1 556.6,503.8 557.3,501.5 558.0,500.3 559.1,499.2 560.5,496.1 560.1,494.9 561.1,492.6 562.4,491.7 562.9,489.6 562.1,485.1 561.6,483.7 560.8,482.2 562.2,481.3 564.0,480.7 564.7,477.4 566.4,475.2 565.2,473.4 565.3,470.3 566.6,469.9 568.0,470.2 570.8,467.4 570.5,465.2 569.8,464.0 571.2,464.3 571.7,463.3 573.5,461.5 574.9,463.2 576.8,464.0 578.2,465.1 581.6,465.8 583.9,466.0 584.8,467.0 585.1,468.2 586.7,471.0 585.8,472.3 587.3,473.9 587.7,475.5 588.6,476.3 589.1,478.0 588.8,481.0 590.0,480.5 590.8,478.8 590.6,477.1 593.3,478.4 594.1,477.4 594.6,475.2 594.5,473.4 595.4,472.2 599.5,471.3 601.4,470.0 602.9,469.5 604.2,471.3 603.8,473.0 603.3,473.9 602.8,476.7 600.7,477.5 601.2,479.6 601.5,481.6 603.4,480.1 604.7,478.4 606.5,478.3 609.1,477.8 611.3,477.6 612.0,479.9 611.3,481.9 610.4,483.2 609.8,485.2 610.0,487.0Z"/><path class="s" d="M483.9,414.9 485.5,413.7 487.8,413.8 491.5,414.0 493.7,415.8 495.4,416.4 496.4,417.1 497.9,417.0 500.1,416.1 501.6,415.7 502.5,415.0 503.4,413.9 505.0,411.2 508.3,409.1 510.1,408.7 510.9,408.1 510.1,406.8 508.5,405.4 508.8,403.4 509.8,402.8 512.8,403.8 515.4,405.2 518.7,408.2 521.6,409.6 520.1,411.2 521.0,412.3 520.0,413.2 519.5,415.3 517.8,421.8 518.7,422.8 518.0,424.8 519.0,425.3 518.2,427.1 516.4,427.4 515.2,428.6 514.6,430.8 513.9,432.8 512.9,433.8 511.6,434.5 510.9,435.2 509.7,437.3 509.2,439.2 507.7,441.2 506.3,442.1 504.8,444.9 503.7,445.7 504.4,447.3 506.4,447.9 508.1,450.8 507.5,452.7 506.1,455.8 506.0,457.8 505.7,459.4 503.9,459.3 502.2,459.4 499.6,460.7 497.5,460.5 495.8,461.1 493.8,460.9 492.5,461.3 491.5,461.9 490.9,462.7 489.9,463.4 488.6,463.3 487.4,464.7 486.2,465.1 486.1,466.6 484.9,466.9 482.7,467.9 482.0,468.9 480.7,467.7 477.1,466.7 476.7,468.1 475.6,467.9 475.0,469.6 475.1,471.2 474.0,473.1 474.6,474.2 475.8,473.6 476.8,474.0 478.6,473.9 480.4,474.6 482.5,475.1 483.3,475.9 484.0,477.5 484.1,478.7 483.7,479.8 482.7,480.3 483.8,484.2 484.9,486.1 484.6,487.8 484.1,489.4 485.7,489.2 488.3,489.3 489.0,490.2 489.3,491.3 488.3,493.2 486.2,495.3 485.1,498.3 483.6,497.6 480.6,498.5 478.7,500.1 476.6,502.0 475.7,503.1 474.2,503.6 473.0,504.6 471.0,506.8 469.8,506.0 469.1,504.7 465.7,506.8 463.8,506.4 461.8,506.9 461.9,505.5 460.9,503.1 461.4,500.7 461.6,499.2 461.3,496.7 461.5,495.4 460.6,493.8 459.3,492.2 459.3,490.5 458.8,486.8 456.6,488.1 454.9,489.7 451.0,491.8 449.2,492.1 446.2,491.5 444.1,492.4 442.5,493.6 441.4,494.6 440.0,495.0 438.5,494.5 436.6,495.2 435.0,495.2 433.8,495.7 431.8,496.2 430.8,497.1 429.4,496.5 428.0,498.5 426.5,498.9 425.2,498.7 423.8,498.1 422.3,497.4 421.2,496.8 421.7,495.5 420.6,495.1 419.2,495.9 416.7,494.6 414.4,492.4 414.4,490.5 413.4,489.9 412.9,488.5 412.6,486.6 411.7,485.7 409.3,484.4 407.2,482.5 405.2,479.7 404.7,478.2 402.4,475.4 400.9,473.1 399.9,471.4 398.5,468.5 398.5,466.1 398.3,464.1 397.3,463.1 395.2,461.0 394.6,460.1 394.0,458.0 395.3,457.3 396.5,455.9 399.1,455.2 402.3,454.9 404.0,454.8 405.6,454.4 406.7,453.4 408.2,451.0 407.8,449.8 406.7,449.1 407.1,447.6 408.3,445.6 410.0,443.2 411.1,441.7 412.1,441.1 413.2,440.8 414.8,441.3 418.0,440.1 420.0,438.3 421.5,438.0 423.3,438.9 424.4,440.1 427.1,441.5 428.6,441.7 431.0,444.6 431.9,445.5 433.2,446.2 434.2,447.6 436.9,449.9 437.5,451.9 437.9,449.8 436.7,448.6 436.2,447.2 435.7,445.3 437.3,444.2 437.7,442.6 437.8,441.3 438.6,438.1 439.1,433.4 441.8,433.2 443.2,433.0 445.2,432.7 446.4,431.4 448.5,431.1 450.6,430.0 451.8,428.4 451.8,426.1 452.3,423.1 452.0,421.2 451.3,420.3 450.3,419.7 449.1,417.4 448.7,415.3 448.1,414.3 445.1,413.7 443.7,413.7 441.9,412.7 441.4,410.2 441.4,408.1 439.4,407.4 437.9,405.9 436.3,406.6 435.5,405.3 435.3,402.8 435.6,401.0 436.0,399.2 436.9,396.6 437.0,395.3 438.0,394.5 439.6,394.9 439.6,393.2 440.1,391.1 442.0,390.6 443.9,389.7 444.0,392.4 443.2,394.2 445.8,393.4 447.0,391.9 446.9,390.1 446.0,388.1 444.7,385.3 446.2,383.1 447.5,382.4 449.6,381.9 452.3,382.5 452.8,384.3 451.4,385.4 449.7,387.7 448.8,389.2 447.6,393.0 447.4,396.1 448.3,398.6 449.0,399.4 450.5,399.6 450.9,398.1 451.0,395.5 450.8,391.8 450.9,389.3 451.7,388.6 454.0,388.0 455.9,387.8 457.6,388.4 459.4,390.0 460.0,391.5 460.1,393.9 458.4,396.5 456.9,399.3 455.4,401.7 456.0,403.1 458.4,403.1 459.2,402.1 460.8,402.3 461.7,403.0 462.8,402.4 463.9,400.3 465.8,399.1 466.9,397.9 465.7,397.1 465.3,395.9 465.7,394.2 468.0,393.3 470.7,393.5 471.2,394.6 470.4,395.8 470.9,397.1 473.5,397.2 474.2,398.4 473.3,402.1 472.8,403.6 471.8,405.7 470.9,406.6 469.4,406.8 466.9,408.0 465.3,408.9 463.2,411.1 461.9,412.1 460.8,412.7 459.6,413.7 459.8,416.0 459.4,419.1 458.7,420.0 457.6,420.8 455.5,421.8 455.4,423.4 456.2,425.2 457.4,425.8 458.6,425.2 459.9,426.1 459.8,427.4 458.3,428.8 453.6,430.7 454.3,432.0 456.6,432.5 457.6,433.6 458.5,435.7 459.6,436.3 462.4,436.1 463.6,436.6 466.0,438.1 467.2,437.5 468.5,436.9 470.2,436.6 472.3,437.1 473.7,436.5 474.6,433.4 475.4,432.7 477.1,432.1 479.0,432.8 480.5,431.7 481.9,430.3 483.4,429.1 486.2,427.3 487.4,425.7 488.0,423.1 484.5,420.0 483.7,417.7 483.9,414.9Z"/><path class="s" d="M614.3,424.2 615.7,425.4 615.2,428.3 617.6,430.9 619.1,431.8 620.7,431.8 621.8,430.7 624.3,431.5 625.0,432.8 626.9,434.9 627.3,436.2 625.8,437.7 625.1,438.9 624.4,441.1 625.0,443.1 622.9,444.1 621.3,442.4 617.8,445.1 617.4,446.2 616.6,446.9 616.4,449.8 616.2,451.5 615.4,453.2 615.1,454.8 616.6,459.1 617.7,460.5 619.9,458.2 621.9,457.5 623.0,456.8 625.3,453.9 626.4,453.2 628.2,452.1 629.9,450.1 630.9,449.6 632.1,450.7 632.6,451.8 632.8,454.6 631.3,456.3 629.3,457.8 628.1,459.6 625.7,460.9 623.8,461.6 624.5,463.7 626.1,463.3 627.2,464.2 627.7,465.9 627.5,467.7 627.2,468.9 626.7,472.0 625.7,473.5 624.8,475.9 624.8,477.4 625.9,481.7 623.5,481.2 621.9,482.5 620.9,484.2 617.4,485.1 616.2,484.8 615.1,485.3 611.9,486.2 610.0,487.0 609.8,485.2 610.4,483.2 611.3,481.9 612.0,479.9 611.8,477.6 609.1,477.8 606.5,478.3 604.7,478.4 604.1,479.6 602.6,481.7 601.5,480.4 600.4,478.2 601.8,476.8 603.3,473.9 603.8,473.0 604.2,471.3 603.6,469.6 601.4,470.0 599.5,471.3 595.4,472.2 594.5,473.4 594.6,475.2 594.4,476.5 593.3,478.4 591.5,477.3 590.8,478.8 590.4,479.9 588.8,481.0 589.1,478.0 588.6,476.3 587.7,475.5 587.3,473.9 586.3,473.1 586.7,471.0 585.1,468.2 584.8,467.0 583.9,466.0 581.6,465.8 579.1,465.4 576.8,464.0 574.9,463.2 573.5,461.5 573.8,458.7 574.0,456.7 574.7,453.1 576.7,452.5 577.8,451.7 579.6,451.2 581.4,450.8 582.3,450.0 584.2,448.7 583.4,446.8 584.0,445.1 584.9,442.9 586.3,442.4 587.3,440.9 587.8,439.3 588.3,437.0 588.9,436.1 588.4,435.2 590.0,433.7 590.6,432.9 592.1,433.8 593.5,433.4 595.1,432.6 597.1,432.2 597.9,430.3 598.6,428.9 600.6,427.4 602.6,429.0 602.9,430.3 604.5,431.7 607.3,429.5 608.6,430.3 609.1,428.9 610.3,426.5 610.8,425.7 612.2,424.2 614.3,424.2Z"/><path class="s" d="M585.7,516.9 586.3,518.0 585.5,519.4 587.4,519.6 588.8,520.2 589.7,521.4 590.7,523.2 593.9,524.0 598.0,524.5 600.8,527.5 600.8,529.1 602.5,530.6 604.1,531.4 605.0,532.5 605.6,534.3 608.8,533.9 609.5,535.1 608.5,536.3 610.6,537.2 612.6,538.4 614.0,539.0 615.6,539.6 617.2,538.8 618.3,538.5 621.1,541.2 623.1,542.2 622.0,544.1 620.9,547.3 620.7,549.2 621.1,550.7 623.4,555.0 624.1,557.0 624.5,561.5 624.8,562.9 623.7,564.0 623.5,566.7 626.6,568.1 627.5,569.8 627.4,572.3 629.1,573.4 630.1,576.1 629.5,579.0 627.9,581.0 626.4,581.3 625.2,582.2 625.0,584.0 622.7,586.4 620.7,587.7 619.9,588.6 619.4,591.2 616.9,593.4 615.3,594.4 613.7,595.8 610.5,592.1 609.3,591.2 606.9,587.9 604.8,588.1 602.9,588.6 600.5,587.6 594.4,585.6 589.8,584.4 586.0,583.6 583.2,583.4 581.1,583.5 579.1,582.9 576.5,581.4 574.3,579.5 573.1,579.2 573.5,577.8 572.6,578.4 570.5,576.5 569.4,575.9 566.2,574.7 562.9,573.4 556.9,571.1 554.0,570.1 550.0,568.6 548.5,568.3 543.8,566.3 541.5,565.6 536.7,563.6 536.3,562.0 534.5,560.5 533.2,559.8 532.3,558.5 529.8,557.3 528.2,556.7 524.6,555.1 523.8,552.6 522.8,551.9 521.2,551.8 520.0,550.8 518.7,550.3 517.7,547.9 516.5,546.8 515.5,546.2 514.8,545.0 513.8,543.2 509.1,540.4 506.4,539.5 504.7,539.8 503.8,540.8 502.3,539.5 502.0,537.5 502.1,534.4 503.2,532.9 504.5,532.6 506.4,531.9 508.2,531.6 510.2,530.4 511.6,528.9 511.5,527.4 510.7,525.6 511.4,524.1 510.6,522.6 511.0,521.1 512.3,520.2 513.7,520.9 514.5,519.6 515.5,520.1 517.3,519.3 519.0,519.5 520.2,521.8 522.5,522.9 525.7,522.3 527.7,521.8 529.6,521.2 531.8,521.2 533.3,521.9 535.7,522.5 536.8,522.2 538.2,522.5 538.7,523.7 539.6,524.7 540.5,525.9 542.2,524.5 543.0,525.2 544.8,525.5 545.3,526.5 547.1,527.6 548.3,528.8 550.3,527.5 548.4,525.2 546.8,522.6 546.4,518.6 545.9,516.4 545.1,514.1 545.5,511.8 546.8,510.7 547.7,512.7 549.8,510.4 551.1,509.1 552.2,508.4 553.6,505.2 555.6,504.2 556.3,503.5 556.2,505.1 556.7,506.3 555.4,509.7 555.0,512.1 554.6,513.6 554.5,515.1 554.9,517.2 556.8,517.7 557.2,519.7 554.9,522.9 556.0,523.8 557.3,523.4 559.2,523.8 559.4,525.2 560.1,526.4 561.1,527.5 562.8,527.2 563.4,526.3 564.8,524.8 567.1,524.1 568.3,523.7 567.4,521.9 569.1,520.5 570.1,521.0 574.4,520.7 575.8,519.5 576.9,519.8 577.4,517.8 579.6,517.4 579.1,515.6 580.1,515.1 581.3,516.5 582.7,516.8 583.7,517.4 584.7,516.8Z"/><path class="s" d="M576.0,420.8 576.4,422.7 575.3,425.3 575.0,426.4 577.8,426.9 578.0,428.6 577.1,430.4 575.4,431.3 574.7,432.6 573.3,432.8 572.5,432.2 571.2,430.6 569.3,431.3 568.5,432.2 567.7,434.0 566.6,435.5 566.7,437.4 565.9,439.4 564.8,438.8 564.6,440.2 561.8,440.2 560.4,440.2 558.6,441.1 557.2,440.9 556.1,441.4 552.9,441.4 552.1,443.2 551.6,444.8 551.3,448.0 552.6,449.9 553.4,452.1 553.2,454.8 554.7,457.9 555.9,458.8 557.2,459.7 558.1,461.8 557.6,463.2 558.3,464.7 558.4,466.4 557.8,468.2 558.8,469.0 557.1,471.4 554.6,471.7 553.7,472.7 553.1,474.5 552.7,472.8 550.8,473.1 548.5,474.4 543.8,474.2 542.2,473.4 539.0,472.9 537.8,469.9 534.9,470.3 533.8,469.7 532.6,470.2 532.8,471.5 531.3,472.2 529.1,471.3 526.0,471.0 525.3,467.3 525.0,465.6 524.8,464.0 526.1,464.7 526.7,463.8 525.2,462.0 523.9,461.1 522.1,461.4 518.8,461.8 517.4,464.1 516.3,465.3 515.2,464.9 513.6,464.9 511.9,464.6 510.4,465.5 508.9,464.8 508.5,463.3 508.1,461.2 507.1,460.1 505.7,459.4 506.0,457.8 506.1,455.8 507.3,453.7 508.3,451.5 506.4,447.9 504.4,447.3 503.6,446.1 504.8,444.9 506.2,443.2 507.7,441.2 509.2,439.2 509.7,437.3 510.9,435.2 511.6,434.5 512.9,433.8 513.9,432.8 514.6,430.8 515.3,429.4 515.8,427.7 517.6,427.5 519.0,425.3 518.0,424.8 518.7,422.8 517.8,421.8 519.5,415.3 519.6,414.0 521.0,412.3 520.1,411.2 521.2,409.9 522.8,410.4 523.8,409.2 525.2,410.1 527.3,410.1 528.8,410.5 530.4,411.4 531.8,411.7 533.8,412.4 536.1,412.7 537.6,413.7 540.0,414.1 542.8,416.6 545.0,418.3 546.6,419.3 548.4,420.1 551.7,420.1 553.6,419.3 553.4,417.9 554.1,416.3 554.7,414.9 556.5,415.1 558.3,415.5 559.9,416.3 562.5,417.7 563.6,418.7 564.5,419.6 565.8,420.5 567.2,422.2 569.4,422.0 570.7,422.4 572.7,422.4 574.8,421.6 576.0,420.8Z"/><path class="s" d="M450.2,244.5 451.1,245.2 454.7,246.2 456.2,247.6 457.3,249.1 458.8,250.4 460.1,251.6 460.8,253.2 461.8,256.5 461.2,260.0 461.5,261.7 462.2,263.1 463.5,266.5 463.0,269.3 463.2,271.7 464.0,273.6 464.7,276.2 464.0,278.9 463.2,280.9 461.9,281.9 460.2,284.5 460.9,286.6 462.6,286.9 463.5,288.4 460.8,289.0 459.9,289.6 459.1,290.6 459.4,291.8 459.9,294.5 460.6,295.6 462.0,297.1 462.5,298.9 465.8,301.6 466.5,304.1 467.2,306.5 468.3,307.1 470.4,308.9 471.6,309.1 473.0,309.9 476.4,310.1 479.0,311.8 480.2,310.9 479.7,309.8 480.2,306.1 480.9,304.9 484.3,302.5 485.0,304.7 486.1,305.5 486.5,306.8 488.4,307.7 489.4,308.8 488.9,310.5 489.0,312.6 488.4,314.9 489.9,315.4 490.2,316.8 491.1,320.3 489.9,321.0 490.5,321.9 489.5,323.0 486.0,323.1 482.9,323.5 481.7,323.1 479.9,324.3 478.0,323.8 476.6,323.3 475.4,322.4 474.0,322.3 472.9,322.9 471.3,323.3 468.5,322.4 466.1,322.3 464.8,322.4 463.1,322.3 461.6,323.8 461.1,325.4 458.1,327.7 456.6,329.4 455.6,331.2 452.8,333.8 449.8,334.7 449.5,336.3 450.5,337.0 451.0,339.0 450.6,341.1 451.0,343.4 450.5,344.9 451.0,347.2 451.6,349.4 450.0,351.8 448.1,353.2 445.9,355.5 445.3,356.8 445.2,359.1 444.3,362.3 443.6,366.3 442.6,367.8 441.1,370.2 441.1,371.8 442.1,375.6 442.2,378.2 441.9,380.2 441.9,382.5 438.2,384.6 436.4,387.0 436.0,388.5 435.0,390.8 433.6,391.6 431.4,392.4 430.9,394.2 428.9,393.0 427.5,392.0 426.9,390.2 423.8,387.2 421.7,386.7 420.7,385.0 418.6,386.7 417.4,388.8 415.7,387.7 413.9,383.6 414.3,382.2 415.9,380.8 418.0,379.7 418.7,378.6 418.6,377.1 417.1,377.1 416.3,374.6 415.4,373.4 413.9,373.5 411.6,372.6 410.5,371.6 409.7,370.4 407.9,372.0 405.9,372.5 404.5,370.8 403.2,369.2 400.6,366.5 398.8,367.1 396.3,366.9 395.5,365.3 395.6,363.5 394.9,361.7 393.8,360.9 393.3,359.9 392.9,358.7 393.3,357.6 392.6,355.2 392.0,353.9 391.6,352.1 391.4,350.4 389.3,348.4 388.2,345.9 386.9,344.4 386.4,343.0 386.1,340.8 385.2,339.5 384.3,336.3 384.6,335.1 383.3,334.0 383.2,331.3 381.8,329.8 381.1,328.5 380.9,327.2 379.6,326.8 378.5,325.1 376.7,323.9 374.8,323.3 371.7,322.5 370.9,323.8 369.4,325.0 367.9,325.8 365.8,326.6 365.0,327.3 364.1,326.7 362.8,326.3 362.4,324.5 361.2,322.8 360.9,320.5 360.3,318.9 359.2,317.9 358.4,316.3 357.0,312.2 355.4,311.8 354.3,308.6 352.2,308.6 350.5,308.7 349.4,307.7 349.8,305.9 348.2,302.8 346.8,300.0 345.6,299.2 346.2,296.8 346.5,293.1 346.3,290.5 347.2,287.9 347.9,286.6 346.5,285.0 347.0,284.0 348.6,282.3 350.1,281.3 349.0,280.6 349.3,279.0 351.5,278.1 352.6,279.7 353.9,280.5 355.3,280.1 356.5,281.3 359.0,281.7 359.8,283.2 362.1,281.5 363.9,280.5 366.4,278.2 368.8,274.8 368.8,272.8 368.3,271.7 367.1,269.8 367.6,268.6 368.7,266.2 369.2,265.0 370.3,264.7 369.9,262.1 371.6,261.8 371.6,260.2 372.7,259.1 374.6,258.4 375.5,257.4 374.2,255.5 374.9,253.8 375.1,251.1 375.8,248.7 376.2,247.0 376.9,244.2 378.4,244.0 379.3,242.0 380.2,241.3 381.1,242.4 382.6,242.5 384.0,243.2 385.0,243.9 386.3,244.2 386.6,245.4 388.1,247.1 389.4,248.1 390.4,248.5 391.8,248.4 393.7,250.1 395.8,251.4 397.0,250.9 398.1,251.3 398.7,252.9 400.8,253.0 402.0,253.5 403.5,254.3 405.0,253.1 406.2,253.7 408.8,252.1 409.5,250.9 410.4,251.7 411.9,252.1 415.0,251.8 417.4,254.1 419.6,255.5 420.8,255.8 422.9,254.7 425.0,254.9 425.9,253.7 425.6,252.1 426.5,250.1 427.9,248.4 429.7,247.7 430.5,247.0 431.1,245.9 433.6,245.6 434.3,244.2 432.4,244.0 432.2,242.4 434.8,243.0 436.6,243.3 437.4,244.5 439.2,244.9 440.2,243.9 441.2,244.6 443.5,243.9 446.0,243.3 448.8,244.8 450.2,244.5Z"/><path class="s" d="M604.1,503.1 600.1,504.0 599.0,503.0 596.4,504.5 595.0,503.0 593.3,503.4 591.3,500.1 590.1,497.8 590.7,495.6 592.2,494.4 593.9,493.0 594.6,490.5 596.1,488.7 596.8,487.7 597.7,489.1 598.7,490.0 599.6,491.6 600.2,493.6 602.3,495.3 602.9,497.3 604.1,497.9 604.5,499.9 603.9,502.0Z"/><path class="s" d="M461.8,506.9 460.2,508.6 458.7,509.8 457.5,509.4 457.2,510.7 457.1,512.0 454.8,513.5 453.9,515.7 452.5,514.2 450.4,512.6 447.5,510.6 444.3,508.6 443.1,507.7 440.8,506.6 436.5,504.9 436.0,503.8 436.8,502.9 434.9,501.5 433.3,502.0 432.6,502.7 430.1,500.9 427.8,500.5 424.6,499.4 426.5,498.9 428.0,498.5 429.0,496.8 430.5,496.7 431.8,496.2 433.2,495.1 435.0,495.2 436.6,495.2 438.5,494.5 440.0,495.0 441.4,494.6 442.5,493.6 443.6,493.3 445.2,491.7 449.2,492.1 451.0,491.8 454.9,489.7 456.6,488.1 458.0,486.6 459.3,490.5 459.1,491.8 460.3,492.8 461.9,494.4 461.3,496.7 461.3,498.2 461.4,500.7 460.7,502.4 461.7,504.4 461.8,506.9Z"/><path class="s" d="M574.0,210.1 572.4,211.8 568.9,213.4 566.0,212.9 563.7,212.8 562.1,212.3 559.9,212.6 557.6,212.6 556.2,213.4 556.0,214.6 555.5,216.2 553.4,219.3 553.4,222.4 552.5,223.6 549.7,223.5 548.4,223.9 547.2,224.6 545.7,224.1 544.2,225.4 543.3,226.6 542.0,228.9 542.0,231.4 542.3,233.0 545.8,235.5 546.9,232.6 547.4,231.6 549.1,232.6 550.2,233.0 550.6,235.7 550.9,237.7 551.2,238.8 550.2,241.4 548.8,243.3 548.4,244.4 547.4,246.0 543.5,245.9 540.3,248.0 537.1,248.0 536.0,248.3 534.9,249.4 534.2,251.4 533.6,252.7 531.3,254.9 530.4,256.7 533.9,260.2 536.3,263.0 539.6,265.5 540.9,269.3 542.6,270.7 544.1,271.5 543.5,272.6 542.9,275.1 543.2,278.1 544.3,280.3 545.6,280.4 546.7,281.2 549.3,281.3 549.8,282.8 550.4,285.9 551.4,287.0 553.9,288.1 555.4,289.3 554.8,290.6 557.3,291.2 559.2,291.3 559.8,292.3 560.9,292.7 561.4,293.9 560.5,295.0 560.3,296.4 557.5,296.6 556.5,296.1 553.3,295.5 551.7,293.6 549.6,293.4 548.4,293.8 546.6,295.5 545.5,297.8 544.6,298.8 545.6,303.0 545.7,305.7 543.2,306.1 542.3,306.7 542.2,309.2 543.9,311.1 544.1,312.8 544.9,314.3 544.1,316.1 543.6,318.3 541.0,317.7 539.9,319.1 538.1,319.5 535.5,318.5 533.9,316.9 532.8,315.1 532.1,313.2 531.5,312.3 530.0,311.3 528.0,310.9 526.3,310.8 525.2,311.2 523.5,311.5 522.4,312.6 519.8,312.7 518.7,312.1 518.6,310.6 518.2,308.2 516.7,307.8 515.6,308.3 512.3,304.5 509.9,302.5 508.8,301.9 506.8,301.3 503.7,299.2 500.0,299.1 496.2,298.5 493.2,298.3 490.9,298.9 487.5,299.6 485.5,299.7 484.7,300.4 484.7,302.4 480.9,304.9 480.2,306.1 479.6,308.7 480.2,310.9 479.0,311.8 476.4,310.1 473.7,309.8 471.6,309.1 470.4,308.9 468.8,307.9 467.2,306.5 466.4,305.4 465.8,301.6 462.8,299.2 462.0,297.1 460.6,295.6 459.9,294.5 459.4,291.8 459.1,290.6 459.9,289.6 460.8,289.0 462.8,288.8 462.6,286.9 460.9,286.6 460.1,285.6 461.9,281.9 463.2,280.9 463.5,279.5 464.7,277.1 464.0,273.6 463.2,271.7 463.0,269.3 463.5,266.5 462.2,263.1 461.5,261.7 461.2,260.0 461.8,257.8 460.8,253.2 460.1,251.6 458.8,250.4 457.3,249.1 456.2,247.6 454.7,246.2 451.1,245.2 450.2,244.5 448.9,242.3 448.0,241.5 446.6,240.6 446.4,238.4 446.0,237.2 447.3,236.8 449.5,235.1 450.9,235.1 451.4,233.2 449.2,232.3 448.5,231.4 448.2,225.6 447.4,221.2 448.0,219.8 447.6,217.6 446.2,217.0 445.2,211.6 446.5,210.2 445.5,208.4 446.2,207.4 445.4,205.4 446.7,204.5 448.1,203.6 447.5,201.9 446.1,201.7 446.1,199.8 448.3,200.7 449.6,198.9 450.2,196.8 451.9,193.8 452.3,192.1 453.3,191.0 452.4,188.8 453.1,187.5 454.0,186.3 455.3,184.3 455.8,183.0 457.9,182.2 459.6,180.9 460.2,179.8 460.6,178.3 461.7,176.2 463.6,176.1 464.7,174.3 462.3,173.0 463.9,170.0 464.5,168.4 466.4,167.8 469.2,169.2 471.2,169.0 472.2,169.5 473.3,169.1 473.7,167.3 474.6,165.4 477.0,163.2 477.8,162.2 479.4,162.0 480.4,161.4 480.7,160.3 479.8,159.7 480.3,158.8 480.6,157.2 481.8,156.4 482.5,155.0 482.1,153.6 482.6,152.3 482.8,150.9 483.7,150.2 484.1,148.4 484.9,147.1 486.3,145.8 486.5,144.2 488.4,143.7 490.1,143.0 491.9,142.7 494.3,142.4 496.0,142.0 496.5,140.1 497.8,138.9 499.5,139.7 501.7,140.3 503.4,141.5 505.9,142.0 507.8,141.3 508.9,141.6 511.4,141.7 513.1,141.2 515.3,142.3 517.2,142.6 518.5,143.1 520.8,142.4 521.9,141.5 522.8,142.7 524.3,141.9 524.6,143.2 526.2,143.8 526.8,144.8 527.2,146.5 528.7,146.2 528.8,148.7 529.8,147.7 531.0,149.3 530.4,150.6 532.2,151.0 533.8,152.5 535.6,152.6 538.1,156.0 540.3,157.3 541.9,158.1 544.7,160.2 545.6,162.2 546.5,163.5 548.2,164.8 548.7,165.9 548.9,167.4 549.3,169.1 549.8,171.2 550.6,171.8 551.0,173.1 551.4,174.2 552.7,175.1 552.8,176.6 553.6,177.3 553.5,178.8 553.8,179.9 555.4,180.6 557.0,182.5 556.5,183.8 557.3,184.9 558.8,185.3 557.9,186.0 558.7,187.1 558.4,188.7 560.3,191.6 561.4,194.2 562.7,195.6 564.0,196.4 566.6,197.3 567.5,198.6 568.7,200.0 568.9,201.2 569.9,202.6 571.0,204.0 571.6,204.9 572.0,206.5 572.9,207.7 573.7,209.1Z"/><path class="s" d="M465.1,167.7 463.9,170.0 462.3,172.6 464.4,173.7 463.6,176.1 461.7,176.2 460.6,178.3 460.2,179.8 459.6,180.9 457.9,182.2 456.2,182.6 455.3,184.3 454.0,186.3 453.1,187.5 452.4,188.8 453.4,190.5 452.3,192.1 451.9,193.8 450.2,196.8 449.7,197.9 449.0,200.2 446.1,199.8 446.1,201.7 447.5,201.9 448.0,202.8 447.6,204.2 445.3,204.7 446.2,206.4 445.5,208.4 446.4,209.3 445.2,211.6 446.2,217.0 447.6,217.6 448.0,219.8 447.4,221.2 448.2,225.6 448.5,231.4 449.2,232.3 451.4,233.2 450.9,235.1 449.5,235.1 448.2,236.3 446.0,237.2 446.4,238.4 446.2,240.0 448.0,241.5 448.9,242.3 450.2,244.5 448.8,244.8 447.0,243.5 443.5,243.9 442.1,244.6 440.2,243.9 439.2,244.9 437.4,244.5 436.6,243.3 434.8,243.0 433.1,242.0 431.8,243.2 434.3,244.2 433.6,245.6 432.1,245.6 430.5,247.0 429.7,247.7 427.9,248.4 426.5,250.1 425.6,252.1 425.9,253.7 425.0,254.9 422.9,254.7 420.8,255.8 419.6,255.5 417.4,254.1 415.7,252.2 411.9,252.1 410.4,251.7 409.5,250.9 408.8,252.1 406.9,253.0 405.5,253.8 403.5,254.3 402.7,253.6 400.8,253.0 399.2,253.3 398.1,251.3 397.0,250.9 395.8,251.4 394.9,250.1 391.8,248.4 390.4,248.5 389.4,248.1 388.1,247.1 386.6,245.4 386.3,244.2 385.0,243.9 384.0,243.2 382.6,242.5 381.1,242.4 380.2,241.3 379.3,242.0 379.0,243.5 376.9,244.2 377.0,246.4 375.8,248.7 375.1,251.1 375.1,253.0 374.0,254.9 375.6,256.1 374.6,258.4 372.7,259.1 371.6,260.2 371.6,261.8 370.4,261.6 370.4,263.7 369.2,265.0 368.7,266.2 367.6,268.6 367.1,269.8 368.3,271.7 368.8,272.8 369.0,274.1 366.4,278.2 363.9,280.5 362.1,281.5 361.0,283.3 359.0,281.7 356.5,281.3 355.9,280.2 354.5,280.6 352.6,279.7 352.2,278.1 349.3,279.0 346.3,276.4 346.0,275.3 345.8,273.3 344.1,270.4 342.0,266.5 339.1,265.7 336.4,265.5 335.2,265.3 330.9,264.3 330.0,262.2 329.5,259.5 329.0,258.3 327.9,256.0 325.2,252.2 325.3,250.9 324.7,249.4 323.4,248.8 323.0,247.5 323.6,246.3 323.0,244.1 323.5,241.3 322.7,240.0 322.2,238.5 320.7,238.8 319.7,237.2 320.0,235.7 318.9,234.6 317.0,234.5 315.3,234.8 312.9,234.8 310.8,234.4 309.7,234.8 308.3,235.1 306.8,234.3 304.8,233.5 303.9,232.9 304.8,231.8 304.3,229.2 304.3,227.7 305.0,226.4 305.8,223.9 305.9,222.4 303.7,217.0 302.6,215.2 302.2,213.7 299.7,211.2 298.3,210.7 297.7,209.9 298.5,207.0 298.1,205.0 296.7,203.5 295.5,201.4 293.8,200.9 292.8,199.7 293.0,198.1 293.5,197.3 291.6,195.2 292.6,192.8 295.7,192.2 297.5,191.2 300.6,192.9 303.0,191.6 304.4,191.5 305.6,190.0 307.5,188.5 304.7,187.5 303.4,186.3 302.8,185.3 303.4,182.8 302.5,180.6 302.5,178.3 303.8,175.7 303.4,172.1 304.4,170.6 303.9,168.7 304.1,167.1 305.7,166.0 305.6,164.1 305.8,162.9 307.5,162.1 307.6,159.3 307.5,154.8 308.7,152.6 308.6,150.4 308.1,146.2 308.1,144.4 307.8,143.2 307.7,141.6 306.3,141.1 305.9,139.9 306.3,138.2 306.4,135.0 307.5,132.2 308.2,131.1 306.4,128.3 307.2,126.5 307.6,124.4 306.7,121.2 306.0,120.1 305.2,117.2 305.3,115.8 303.9,114.1 304.6,111.3 303.3,110.2 303.2,107.4 301.8,106.2 300.6,105.2 299.8,104.3 301.8,103.5 301.8,101.4 302.4,99.9 302.1,98.1 301.6,96.9 300.1,94.8 299.4,92.6 300.6,91.5 299.3,89.9 310.5,89.8 316.6,89.8 316.6,74.7 339.6,74.7 368.3,74.7 369.6,75.9 371.5,75.8 372.8,76.4 375.2,79.9 376.0,82.2 376.9,82.7 377.8,84.8 379.3,85.8 380.2,86.6 382.2,87.7 384.5,87.9 385.3,88.6 386.2,89.9 387.4,90.5 388.5,91.3 390.9,94.2 391.5,95.3 393.1,95.9 395.4,97.2 396.9,98.4 397.4,99.6 398.4,101.5 399.8,102.2 402.6,104.4 403.2,105.5 404.2,106.2 405.5,106.9 407.5,108.0 409.3,108.1 410.4,109.4 411.9,109.6 412.7,110.6 413.9,111.8 415.7,112.5 416.0,114.0 417.5,114.5 418.5,115.7 419.4,118.2 419.5,119.9 420.0,120.8 421.2,122.6 422.2,124.5 422.7,125.5 423.6,126.0 424.3,126.7 424.9,128.6 425.0,130.0 425.0,131.5 424.4,133.2 424.9,134.2 425.4,136.3 425.3,138.1 426.6,139.2 427.4,140.9 428.7,142.7 429.2,143.9 429.6,146.0 431.7,147.6 433.9,149.2 434.4,150.2 435.8,150.9 438.0,151.1 439.7,152.4 440.1,153.6 441.0,155.2 442.8,155.9 443.5,156.8 444.5,157.4 446.9,158.5 448.4,158.5 450.6,159.0 453.1,160.1 454.8,162.4 456.6,162.7 458.2,163.0 459.8,163.1 461.4,164.6 463.0,166.1 463.6,167.0 465.1,167.7Z"/><path class="s" d="M750.5,604.8 751.2,603.4 751.9,604.2 750.5,604.8Z M750.1,599.1 749.9,595.8 750.5,593.9 750.2,592.6 749.0,590.1 751.2,582.8 752.0,580.5 754.5,578.6 755.4,577.4 755.8,576.3 756.4,572.9 757.3,571.6 757.4,570.2 757.7,567.8 758.3,566.8 761.3,565.2 763.2,563.3 765.3,562.1 766.4,561.0 769.0,557.4 769.0,555.3 770.2,554.0 770.7,552.9 772.2,551.9 772.9,550.4 773.4,548.0 773.3,545.0 773.8,543.7 773.6,541.8 775.0,540.8 776.6,540.1 778.3,541.1 779.9,541.8 780.9,543.4 781.9,543.8 784.8,543.5 784.9,545.9 783.8,547.8 783.1,548.6 783.4,550.6 784.1,551.5 785.3,552.2 786.0,553.4 785.9,554.8 787.6,556.1 789.3,556.6 789.8,558.0 790.3,559.3 791.1,560.4 792.1,560.8 794.5,559.7 797.4,556.8 799.9,555.2 802.0,553.5 804.6,551.3 805.3,550.2 806.5,549.5 809.3,548.7 809.8,547.7 809.3,545.4 809.9,544.5 812.1,545.1 814.5,545.1 815.4,542.7 817.2,543.2 817.7,544.3 819.9,544.0 821.4,543.6 822.1,544.3 822.7,545.4 822.9,546.7 822.7,548.0 824.1,548.9 825.9,549.6 826.6,552.3 827.5,553.9 827.2,555.3 826.6,556.6 827.1,557.7 828.6,558.0 831.9,558.8 833.7,560.4 835.1,562.7 833.5,564.4 833.4,565.7 835.0,566.2 835.5,567.1 836.5,566.7 837.7,567.1 838.3,569.1 839.5,570.7 840.9,572.2 842.2,572.5 842.5,573.8 844.2,575.6 846.0,577.0 846.7,577.8 848.3,577.9 848.6,579.1 851.0,580.0 852.4,579.9 853.6,581.1 855.0,582.2 856.0,583.5 856.7,585.1 856.9,586.6 857.1,587.9 857.2,589.2 858.3,589.8 859.2,590.9 860.9,591.3 862.3,591.8 864.2,592.4 864.8,593.9 863.7,596.3 863.9,597.6 863.7,598.8 863.0,599.7 864.0,601.0 862.9,603.1 863.4,604.2 846.9,604.1 844.3,604.2 833.1,604.0 823.8,603.9 819.7,611.5 816.1,618.2 813.0,623.9 811.7,626.2 808.8,631.3 813.5,637.9 813.0,639.0 812.3,640.0 810.8,640.8 810.8,642.2 811.0,644.1 809.7,645.9 810.4,648.2 810.8,650.0 810.8,651.5 809.9,653.0 809.5,655.1 808.4,656.0 807.5,655.2 804.7,652.2 802.9,650.7 802.2,649.5 800.5,647.7 792.5,638.9 789.4,635.5 788.3,634.1 784.6,630.4 783.2,628.8 779.8,625.6 774.6,620.4 769.4,616.0 767.9,614.8 763.3,611.3 760.4,609.3 759.0,608.4 756.9,607.3 755.8,606.9 757.0,606.3 758.1,606.7 757.8,604.9 756.9,603.7 755.8,603.4 754.3,603.4 752.8,603.0 751.2,602.4 750.3,601.2 750.1,599.1Z"/><path class="s" d="M829.8,512.9 830.4,514.0 829.6,514.7 827.6,514.3 826.2,516.5 824.9,516.0 823.6,516.9 822.0,517.8 820.6,518.0 820.0,517.2 821.9,516.7 823.3,516.3 825.9,515.0 828.7,513.6 829.8,512.9Z M865.1,444.8 864.9,454.1 869.1,454.5 870.4,455.2 871.2,457.3 872.4,457.0 874.2,458.3 875.3,456.9 876.3,456.0 877.3,457.7 878.1,458.6 878.3,460.0 880.9,462.5 881.9,464.3 882.7,467.2 883.3,468.2 884.4,468.8 885.7,469.2 886.9,469.9 888.1,470.9 888.8,472.0 889.5,474.0 890.8,475.9 892.4,477.3 893.4,478.6 894.1,480.6 894.4,483.0 895.5,484.6 896.6,485.9 898.3,487.5 901.0,489.2 903.1,491.3 904.7,493.2 906.8,496.2 907.3,497.7 907.0,499.9 907.0,502.1 906.9,505.0 905.6,505.6 905.4,509.7 904.4,515.1 904.6,517.9 905.8,519.5 905.4,522.2 906.4,522.7 905.7,524.9 906.3,526.7 906.7,531.5 905.9,534.3 903.8,537.1 902.9,538.0 903.2,541.2 903.2,545.5 885.3,545.4 864.0,545.3 846.7,545.4 846.7,543.3 843.5,542.2 841.8,541.3 840.1,540.7 838.1,539.8 837.4,538.9 836.1,537.8 833.6,537.4 831.6,536.8 828.9,536.7 827.8,538.6 828.2,541.0 825.8,542.1 824.2,542.9 823.2,542.0 821.5,541.4 819.7,541.6 818.9,540.9 817.0,538.9 815.5,538.1 814.3,536.8 812.7,535.9 811.2,533.6 810.0,531.1 809.2,529.3 809.6,527.3 808.2,525.5 807.0,526.0 806.1,524.6 803.2,523.2 802.4,522.1 801.1,518.3 803.2,516.8 804.8,516.6 807.5,516.5 810.0,516.1 815.0,515.6 816.9,515.8 818.0,517.6 818.8,518.2 819.8,518.6 819.1,520.2 817.6,519.4 816.3,519.5 815.4,520.2 815.6,521.8 817.0,521.5 816.4,520.1 817.7,520.7 819.8,521.5 822.4,522.7 823.6,523.3 826.5,524.0 828.3,524.3 830.1,524.2 831.2,522.4 834.8,520.9 836.6,520.4 837.1,518.3 837.7,516.7 838.9,514.6 837.2,512.4 836.1,513.3 834.7,512.5 834.3,511.3 835.0,509.7 836.2,508.5 834.4,510.3 833.4,511.2 831.8,512.1 833.9,509.3 836.7,507.6 838.9,506.6 842.3,504.6 843.7,503.2 846.1,501.7 848.2,500.2 850.5,498.1 851.6,497.0 852.8,496.0 854.2,494.4 854.7,493.2 854.6,491.9 855.3,489.3 855.0,486.6 855.7,485.2 855.2,483.5 856.3,481.3 856.5,480.0 857.7,478.8 859.8,477.4 861.3,476.3 863.0,473.2 862.4,472.0 861.8,469.7 862.2,468.0 861.7,466.3 862.0,464.9 861.9,460.8 862.0,459.3 861.6,457.2 861.5,455.0 862.1,452.9 862.7,451.9 863.1,450.4 863.3,447.7 863.7,446.6 865.1,444.8Z"/><path class="s" d="M115.7,526.6 117.2,526.7 116.0,527.4 115.2,526.9Z M237.0,494.2 236.7,495.9 237.0,494.2Z M240.3,292.8 239.8,294.2 238.9,293.6 240.3,292.8Z M101.0,205.7 102.7,206.6 101.0,205.7Z M196.0,294.1 196.2,295.8 195.1,298.9 195.0,301.1 195.0,302.6 194.1,304.6 194.9,306.3 194.5,307.7 193.3,308.4 194.2,309.8 194.9,310.8 195.9,312.2 196.4,313.8 195.6,315.2 196.7,316.1 198.3,318.4 196.9,318.2 196.0,316.2 194.6,315.0 195.5,314.5 195.7,312.5 194.7,311.3 193.0,310.4 191.5,310.9 190.7,310.3 191.7,308.3 193.5,303.2 195.3,297.0 195.7,294.4Z M237.7,279.3 238.3,283.1 236.7,281.0 237.1,279.9Z M229.7,279.2 230.4,280.7 228.9,279.4Z M133.9,203.8 135.5,203.8 174.5,203.9 176.4,206.3 177.6,208.1 178.4,210.5 179.7,212.0 180.9,213.1 181.7,214.0 183.7,214.4 185.1,215.0 185.8,215.8 188.9,217.3 189.8,218.4 190.2,220.4 190.8,222.4 191.7,223.9 192.7,225.1 193.9,227.7 193.4,228.7 194.9,230.1 196.6,231.2 198.1,231.7 199.7,232.0 201.4,232.6 200.9,233.5 199.8,234.8 199.5,236.7 200.8,238.0 201.6,239.6 202.7,240.2 203.9,241.5 204.3,243.2 203.4,243.8 202.8,245.4 204.3,246.3 204.6,247.7 206.0,248.5 206.8,250.6 208.0,251.5 209.2,250.7 209.9,249.8 207.2,246.8 206.2,246.3 205.7,243.8 204.6,240.0 205.5,239.4 207.8,241.1 208.6,242.4 210.2,243.5 210.8,244.4 213.5,246.1 213.4,248.6 213.2,250.3 215.4,251.7 217.0,252.1 216.3,254.0 216.3,255.5 217.2,256.5 217.7,257.8 218.9,258.8 219.0,260.2 219.1,262.2 219.7,264.0 220.2,265.8 221.0,267.2 220.3,268.4 220.4,270.0 219.7,270.9 220.4,272.8 221.3,276.0 222.6,278.2 224.3,279.7 224.6,281.2 224.8,282.6 225.7,284.0 227.1,285.5 228.5,285.9 230.2,285.9 230.2,287.7 230.7,290.2 231.4,291.7 232.4,292.8 232.4,294.3 232.9,296.1 233.7,297.1 234.4,299.0 235.0,300.6 236.0,301.2 236.7,302.3 238.2,302.9 238.5,304.5 239.8,306.4 240.3,307.5 240.8,309.0 241.1,311.2 240.2,313.4 239.1,314.5 238.8,315.9 238.8,318.3 239.1,319.6 240.4,321.3 240.2,323.4 240.6,324.9 241.9,326.4 242.7,328.3 243.7,328.9 244.6,330.0 246.8,330.7 249.9,331.2 251.4,331.0 249.9,332.0 249.0,331.2 248.7,333.3 250.8,333.1 251.6,331.7 252.3,329.7 251.2,327.0 251.5,325.7 252.4,325.1 254.3,325.4 255.6,327.1 256.1,328.5 257.8,329.4 259.4,330.3 261.3,331.7 261.7,333.3 261.9,335.4 263.7,336.0 265.2,335.7 266.9,334.9 267.6,336.3 266.5,338.6 266.8,339.8 268.5,341.2 269.6,342.3 270.8,343.7 270.4,344.9 270.9,347.3 271.3,348.9 272.6,349.6 274.0,350.0 276.3,351.1 277.9,352.1 278.2,354.4 279.3,355.7 279.5,357.1 279.1,358.4 279.1,360.8 278.9,362.5 278.2,364.1 275.9,367.0 274.6,367.9 273.3,368.1 271.9,368.6 270.4,369.6 269.7,371.1 267.8,371.9 267.2,373.2 266.0,374.2 264.1,375.0 262.7,375.0 260.9,373.9 259.7,372.5 258.9,371.1 258.3,369.1 257.9,367.2 256.8,362.9 256.5,360.2 255.4,358.4 254.4,357.1 253.4,354.6 252.3,352.9 251.1,351.5 249.7,350.5 247.4,349.3 244.8,348.3 243.5,347.5 241.4,345.6 238.3,342.2 235.6,339.1 234.8,338.5 233.5,337.1 231.8,335.6 230.5,334.6 229.2,333.2 224.3,330.1 223.0,329.1 219.5,327.2 216.0,325.1 214.7,323.3 213.2,323.3 212.1,322.3 211.4,319.7 210.6,317.8 209.2,318.9 206.3,318.6 205.5,319.5 205.7,317.7 204.8,315.2 202.8,312.9 202.1,312.3 200.9,311.7 199.2,311.9 197.6,311.3 196.8,310.7 197.2,308.9 196.2,307.5 197.0,306.3 196.4,303.9 195.7,305.0 195.6,306.5 195.8,308.6 194.8,309.7 194.2,308.2 195.1,306.3 194.5,305.5 195.3,304.1 196.2,302.0 195.2,301.0 195.4,298.7 196.5,296.2 196.8,294.1 197.7,290.9 197.4,288.4 197.2,287.1 197.6,285.9 198.1,282.9 197.9,281.3 197.0,280.0 196.9,277.9 196.5,276.5 195.7,274.4 195.0,273.1 194.6,271.5 194.0,270.0 192.9,268.4 191.5,267.5 190.1,265.2 189.4,263.7 188.1,261.9 186.0,260.8 185.2,261.6 180.8,259.0 179.1,259.0 178.1,257.6 174.9,255.3 172.8,253.4 170.5,252.0 168.2,250.3 167.2,249.2 167.0,247.4 165.8,245.6 164.6,244.1 164.1,242.8 163.6,244.0 161.8,243.2 163.1,242.4 164.7,241.1 165.2,239.5 165.0,238.0 164.2,236.1 163.5,236.9 163.0,238.7 163.0,240.8 161.4,241.1 160.9,243.8 158.9,243.1 156.0,242.4 154.6,241.8 153.6,242.9 153.2,244.3 152.4,245.3 150.5,245.5 149.5,244.9 148.6,243.2 146.7,242.7 145.7,239.9 144.7,238.2 142.5,236.6 140.9,236.1 138.4,236.8 136.9,235.2 136.5,234.0 135.5,232.8 134.2,231.9 132.7,231.2 130.2,230.8 129.3,231.6 128.1,230.5 126.3,229.7 125.1,229.9 123.4,228.2 123.5,226.4 123.4,223.9 122.8,222.0 120.7,220.7 119.9,219.8 117.9,218.8 116.4,218.3 115.1,217.4 114.4,215.6 112.4,214.1 111.5,212.3 110.7,213.5 109.4,212.0 108.1,211.3 106.6,210.3 106.1,208.3 105.1,207.3 106.1,206.9 107.4,208.0 110.3,207.7 112.2,208.0 114.3,208.4 116.3,208.7 117.8,209.3 120.0,209.8 121.0,209.4 122.9,209.8 124.4,209.3 125.9,208.3 127.6,208.5 127.9,206.5 129.4,206.6 128.8,209.6 129.7,211.1 131.6,212.6 133.1,213.0 135.7,215.2 137.0,214.0 137.5,212.9 138.5,213.6 141.5,217.3 143.4,216.1 141.9,214.9 141.6,212.9 142.2,211.9 141.6,209.8 139.8,207.0 138.5,209.3 138.7,210.7 134.8,212.1 132.8,210.6 132.9,208.2 134.4,206.1 133.6,204.6Z M250.5,319.0 252.1,320.6 252.1,322.7 251.5,323.5 250.9,322.5 250.1,321.5 249.8,320.0 250.5,319.0Z M162.1,245.0 163.8,245.3 164.5,246.2 161.1,245.9 162.1,245.0Z M200.4,319.3 203.1,319.6 204.9,320.1 205.6,321.3 207.7,322.2 208.5,323.7 209.4,325.2 208.9,326.2 206.8,324.6 203.8,322.1 202.0,321.0 200.4,320.0Z M263.7,324.4 265.0,326.5 265.5,327.8 266.4,329.4 267.7,331.7 265.7,332.1 264.8,330.8 264.0,328.4 263.5,326.0 263.7,324.4Z M228.9,267.3 228.3,268.5 228.3,270.5 227.7,269.8 226.0,271.9 225.2,272.9 224.5,274.7 223.8,275.6 224.1,274.1 224.3,272.1 225.6,270.0 225.4,268.2 227.6,267.8 228.9,267.3Z M197.1,280.4 197.1,282.1 197.1,286.0 197.0,283.6 197.0,280.5Z M239.8,299.8 240.6,301.2 243.4,302.2 244.1,304.0 245.2,307.1 242.0,305.8 240.5,302.6 239.4,301.5 239.8,299.8Z M249.4,317.0 250.5,318.7 249.0,318.7 249.4,317.0Z M203.5,220.5 204.4,221.3 203.5,220.5Z M197.3,227.1 198.6,228.4 198.1,229.8 197.3,228.6 197.3,227.1Z M231.1,510.0 232.1,510.9 233.3,512.2 233.3,514.5 232.2,515.0 231.7,514.1 230.3,513.9 229.3,512.2 230.3,511.4 231.1,510.0Z"/><path class="s" d="M172.5,179.3 175.3,180.8 176.8,182.2 175.4,181.6 173.3,180.2 172.5,179.3Z M152.1,149.9 153.4,150.3 154.6,150.6 156.0,151.9 157.1,153.0 158.1,155.2 157.7,156.6 157.8,158.0 162.9,158.9 164.0,162.4 163.9,164.2 164.5,165.3 166.1,166.7 165.7,168.9 164.4,168.0 163.4,167.5 161.6,166.0 161.1,165.0 159.9,163.6 158.3,162.7 156.8,161.4 156.0,160.3 155.6,159.2 153.9,158.9 153.6,157.6 151.7,155.0 150.9,153.7 151.9,151.5 151.6,150.4Z M101.1,189.5 101.7,190.8 102.7,193.4 102.3,194.7 102.8,195.7 102.8,197.5 102.0,198.6 102.0,201.1 100.6,201.3 99.6,199.9 98.3,199.0 96.6,199.5 98.3,197.3 100.1,195.0 99.6,192.2 99.8,190.8 101.1,189.5Z M134.7,203.8 132.9,203.9 132.1,205.0 130.3,206.0 130.2,204.2 132.3,202.1 134.0,199.7 134.8,200.7 133.9,201.6 134.7,203.8Z M182.9,177.5 183.0,179.5 181.6,179.5 181.1,178.4 182.9,177.5Z M113.4,50.7 112.4,51.3 110.3,50.8 109.4,52.5 108.8,53.7 108.8,55.3 106.7,57.5 107.6,59.2 108.2,60.3 107.5,62.5 107.8,63.7 107.3,66.8 107.6,67.9 106.9,69.1 108.1,70.1 109.8,70.9 110.8,71.2 112.4,72.3 113.9,73.5 113.3,75.5 114.2,78.1 114.4,80.1 113.7,80.7 113.0,81.7 112.1,84.5 112.3,86.4 112.0,88.6 111.6,89.6 111.3,91.3 111.4,93.0 111.1,95.6 111.2,97.1 111.8,98.1 112.9,98.9 112.9,100.4 114.1,102.2 116.3,103.2 116.8,105.7 117.0,107.3 116.9,108.8 116.8,110.6 117.1,112.0 116.9,113.4 117.5,114.9 118.4,116.1 119.1,118.1 118.8,119.5 119.1,120.7 118.7,122.2 118.3,125.4 118.4,127.2 117.9,128.3 119.2,130.8 120.5,132.3 121.1,134.4 122.0,135.9 123.6,136.6 123.9,137.7 125.9,138.9 125.9,141.0 126.4,142.1 128.0,143.3 129.4,143.5 129.8,142.5 130.9,142.8 132.0,143.4 133.5,145.2 135.1,146.5 136.3,147.1 137.1,148.4 139.1,149.4 140.2,150.8 141.6,152.1 142.7,152.9 143.7,153.8 145.4,154.6 146.1,155.6 147.0,156.3 147.9,157.6 149.6,158.9 150.0,160.0 149.1,161.0 149.5,162.3 150.5,163.2 151.0,164.1 151.8,165.3 152.6,166.5 151.9,167.9 152.5,169.8 153.1,172.1 154.7,171.4 155.4,170.5 156.4,171.1 157.7,171.5 158.0,172.9 158.3,175.1 161.3,173.9 162.6,174.6 163.2,176.8 164.3,180.0 165.3,180.9 165.8,183.6 166.0,185.1 166.9,185.8 169.2,186.9 171.0,186.6 172.2,186.2 172.9,187.5 174.0,188.0 173.9,189.4 173.2,190.9 173.1,192.5 175.6,195.8 175.0,197.4 175.3,199.4 175.3,201.4 176.4,202.1 176.7,203.3 176.6,205.8 175.6,204.2 135.6,203.8 135.3,201.0 136.4,202.4 137.2,201.5 136.4,200.3 135.3,198.6 136.5,195.9 136.8,194.7 136.3,193.5 135.2,194.2 136.2,190.1 137.0,187.4 136.4,185.8 135.8,184.6 134.9,183.4 133.5,183.0 133.7,181.6 132.9,180.1 131.0,179.8 130.2,179.0 128.9,177.8 127.8,177.4 127.3,175.3 126.2,174.7 126.0,173.2 125.0,172.4 123.5,170.8 121.7,170.7 120.7,169.4 119.7,166.5 118.9,165.2 117.6,164.7 115.9,163.9 115.5,162.4 113.4,161.3 112.4,160.2 111.4,158.9 109.6,157.0 108.2,155.6 105.6,154.6 104.4,154.3 103.0,154.3 101.2,152.6 100.0,151.1 98.5,150.3 97.0,149.7 93.6,147.4 92.1,147.7 90.3,146.1 89.7,145.2 86.8,143.5 86.6,141.2 86.2,138.5 84.8,136.6 82.9,135.9 83.5,132.9 83.0,130.3 83.2,128.4 83.2,126.5 82.0,123.3 81.2,122.4 79.5,121.2 78.6,119.8 77.6,120.4 75.8,119.4 75.9,115.5 76.1,112.7 75.9,111.3 75.3,108.5 74.7,107.3 72.2,105.8 70.5,104.8 69.4,103.4 68.7,102.3 66.8,102.5 67.3,97.9 67.4,95.8 66.1,93.9 65.7,92.7 64.9,91.6 63.1,90.2 62.0,88.4 60.8,86.5 59.3,85.4 58.2,84.4 56.6,83.3 55.7,81.9 56.9,81.3 56.4,80.3 57.0,78.8 55.5,77.0 54.1,76.0 56.6,76.9 57.9,75.8 58.2,73.6 57.6,72.1 55.4,70.9 54.0,70.7 53.5,68.6 51.3,68.2 49.8,66.8 49.7,63.3 49.0,61.8 48.7,60.1 48.1,59.2 46.8,58.7 45.5,58.4 44.5,56.3 43.6,54.5 42.3,51.0 42.3,49.5 55.7,48.2 68.4,47.1 76.7,46.4 87.4,45.5 105.6,44.0 116.3,43.2 115.4,45.1 114.4,46.4 114.2,48.7 113.4,50.7Z M7.3,162.1 6.5,163.6 6.7,164.8 8.3,166.3 8.6,168.0 8.6,169.7 8.4,171.1 7.8,172.2 6.2,170.7 5.7,169.2 5.6,167.3 4.1,165.8 4.6,164.6 4.2,163.5 5.1,162.7 7.3,162.1Z"/><path class="s" d="M483.9,414.9 481.8,413.3 481.0,412.1 480.9,410.6 481.5,408.8 482.4,407.0 483.7,405.0 485.9,402.4 486.5,401.2 487.0,399.8 487.2,397.9 489.0,396.2 490.4,396.1 493.0,394.4 495.4,393.3 496.9,392.1 497.4,390.5 499.2,392.1 500.9,393.7 502.5,395.0 505.5,396.3 506.3,397.0 506.7,398.9 507.1,400.1 507.9,402.0 508.8,403.4 508.4,404.5 510.1,406.8 510.9,408.1 510.1,408.7 508.3,409.1 505.6,410.6 503.4,413.9 502.5,415.0 501.6,415.7 500.1,416.1 497.9,417.0 496.4,417.1 495.4,416.4 493.7,415.8 492.4,414.4 488.9,413.7 486.4,413.5 483.9,414.9Z"/></g></svg>